<?xml version="1.0" standalone="no"?>
<!DOCTYPE svg PUBLIC "-//W3C//DTD SVG 20010904//EN"
 "http://www.w3.org/TR/2001/REC-SVG-20010904/DTD/svg10.dtd">
<svg version="1.0" xmlns="http://www.w3.org/2000/svg"
 width="464.000000pt" height="464.000000pt" viewBox="0 0 464.000000 464.000000"
 preserveAspectRatio="xMidYMid meet">
<metadata>
Created by potrace 1.14, written by Peter Selinger 2001-2017
</metadata>
<g transform="translate(0.000000,464.000000) scale(0.100000,-0.100000)"
fill="#000000" stroke="none">
<path d="M1 3098 l0 -1543 21 55 c11 30 28 73 39 96 10 23 19 45 19 49 0 4 18
44 39 88 22 45 49 103 60 130 20 44 41 69 27 30 -12 -30 2 -9 34 50 16 31 30
63 30 72 0 8 4 15 9 15 5 0 21 25 36 55 14 31 30 53 34 51 5 -3 16 12 26 34
20 45 55 82 55 59 1 -10 4 -9 11 3 5 10 15 18 22 18 7 0 30 16 52 34 71 62
166 105 305 140 36 9 54 19 52 27 -2 9 3 8 16 -4 21 -19 95 -23 146 -8 60 18
135 28 145 18 5 -5 22 -3 42 7 19 9 46 17 62 18 28 2 30 7 31 68 1 27 5 35 19
34 9 -1 17 2 17 7 0 5 -5 9 -12 9 -6 0 -3 7 8 16 10 8 13 12 5 8 -9 -5 -12 -1
-8 12 4 11 0 30 -7 43 -10 18 -11 32 -3 54 7 20 6 31 -1 36 -6 3 -9 24 -7 46
1 22 -2 46 -9 54 -8 11 -8 15 2 19 10 3 10 7 2 18 -7 7 -13 38 -13 69 -1 30
-5 55 -9 55 -8 0 -4 47 5 56 3 3 3 16 -1 28 -4 11 -7 38 -7 58 0 25 -5 38 -13
38 -10 0 -9 4 2 16 9 8 14 20 10 25 -3 6 -1 15 4 22 7 8 4 19 -9 36 -10 13
-19 18 -19 12 0 -6 -4 -11 -9 -11 -4 0 -6 22 -3 49 3 33 0 51 -8 56 -9 5 -11
4 -6 -3 4 -7 2 -12 -3 -12 -6 0 -11 6 -11 13 0 6 -3 22 -6 35 -4 13 -2 22 5
22 6 0 11 -9 11 -20 0 -11 7 -20 15 -20 14 0 32 -61 22 -77 -3 -5 2 -14 11
-20 15 -9 17 -5 16 36 0 25 3 59 8 75 5 21 4 32 -5 38 -7 4 -7 8 -1 8 5 0 14
12 20 27 8 22 9 17 10 -33 1 -74 9 -126 23 -153 8 -14 8 -21 1 -21 -5 0 -10 7
-10 15 0 8 -4 15 -10 15 -12 0 -2 -29 19 -54 9 -10 15 -20 14 -22 -7 -10 -2
-45 5 -41 8 6 7 -72 -3 -102 -4 -12 -2 -21 4 -21 6 0 11 -9 11 -19 0 -14 -5
-18 -21 -14 -16 4 -19 11 -15 29 3 12 2 25 -3 28 -4 3 -7 22 -5 43 2 30 1 34
-8 20 -7 -13 -7 -38 1 -79 6 -33 8 -66 5 -72 -3 -6 1 -2 10 8 15 19 16 19 22
0 4 -10 9 -23 12 -28 3 -5 -5 -7 -16 -4 -17 5 -22 2 -22 -12 0 -11 4 -22 10
-25 6 -3 7 1 4 9 -7 19 7 21 24 4 9 -9 12 -4 13 23 1 18 3 26 6 17 7 -28 21
-21 15 7 -2 14 -8 25 -12 25 -12 0 -19 50 -8 56 5 4 7 17 4 29 -7 27 2 57 14
50 4 -3 8 -21 8 -40 0 -20 6 -42 12 -50 11 -13 10 -14 -6 -8 -17 6 -18 5 -4
-13 8 -10 18 -21 21 -24 4 -3 10 -16 14 -29 5 -18 4 -22 -5 -16 -10 6 -12 -1
-7 -31 4 -21 7 -47 7 -56 0 -10 7 -18 15 -18 8 0 15 -5 15 -11 0 -6 -7 -9 -15
-5 -28 10 -15 -14 18 -34 21 -13 26 -20 15 -20 -10 0 -18 -4 -18 -10 0 -5 4
-10 9 -10 11 0 23 -37 24 -75 0 -16 5 -33 11 -37 6 -4 6 -11 -2 -21 -7 -7 -9
-17 -5 -21 4 -3 6 -40 5 -80 -1 -41 1 -77 6 -80 13 -8 126 -9 154 -2 24 7 28
5 34 -18 3 -15 12 -30 18 -34 7 -4 27 -29 46 -57 28 -42 34 -63 40 -130 9 -93
27 -165 40 -165 6 0 10 -9 10 -19 0 -11 5 -23 10 -26 6 -3 8 -16 4 -29 -3 -14
0 -27 9 -35 21 -16 57 -22 57 -9 0 24 12 -2 16 -34 3 -29 2 -31 -7 -11 -9 18
-49 30 -49 15 0 -9 42 -72 47 -72 3 0 -2 11 -11 25 -18 28 -20 35 -7 35 5 0
12 -12 16 -27 5 -16 10 -35 13 -43 10 -32 1 -173 -11 -184 -36 -30 -64 -121
-70 -223 -2 -32 -3 -33 -47 -33 -25 0 -56 -3 -69 -7 -22 -5 -23 -4 -16 25 3
17 2 39 -4 49 -9 16 -10 15 -11 -9 0 -35 -20 -78 -36 -78 -10 0 -24 -21 -24
-36 0 -9 39 -4 45 6 3 6 1 10 -6 10 -7 0 -10 2 -7 5 2 3 36 6 74 8 38 2 59 2
47 0 -13 -3 -23 -9 -23 -14 0 -5 39 -9 88 -10 48 0 81 -3 75 -6 -7 -2 -13 -11
-13 -19 0 -8 -3 -14 -7 -14 -5 0 -6 -78 -3 -172 3 -95 4 -174 3 -176 -2 -6
-275 -17 -278 -12 -3 4 -15 308 -15 365 0 19 -36 25 -59 9 -26 -19 -105 -8
-97 13 4 9 1 11 -5 7 -7 -4 -10 -3 -7 2 2 5 10 23 17 41 7 18 24 36 40 43 16
6 38 22 50 36 11 13 27 24 33 24 7 0 0 9 -16 19 -37 24 -94 35 -110 22 -7 -6
-17 -7 -22 -3 -4 4 -2 -1 5 -11 9 -12 21 -15 35 -11 13 4 5 -8 -24 -32 -51
-45 -65 -48 -64 -14 2 37 3 40 14 40 5 0 7 -6 4 -14 -7 -18 12 -30 22 -15 4 8
3 9 -5 5 -8 -5 -10 0 -7 19 3 18 1 25 -7 22 -22 -7 -55 -66 -67 -119 -18 -77
-123 -231 -173 -254 -43 -20 -119 -103 -167 -184 -48 -80 -105 -136 -185 -180
-71 -40 -165 -123 -165 -146 0 -7 -39 -52 -88 -101 -83 -84 -151 -164 -252
-298 -25 -33 -73 -87 -107 -121 -68 -68 -218 -174 -245 -174 -14 0 -18 -9 -18
-40 l0 -40 275 0 c257 0 274 1 268 17 -7 17 -6 17 10 1 14 -13 32 -17 77 -15
33 1 60 5 60 9 0 5 -7 8 -15 8 -9 0 -21 12 -27 26 -14 30 -1 43 47 45 l30 1
-29 7 c-43 9 -47 32 -4 26 25 -4 28 -3 13 4 -17 7 -20 16 -16 52 3 32 6 39 11
25 4 -13 9 -16 14 -8 3 6 13 9 21 5 9 -3 15 1 15 11 0 9 6 16 13 17 6 0 25 2
41 3 20 1 30 -3 34 -16 2 -10 8 -15 14 -12 14 9 38 -15 31 -32 -3 -8 -1 -14 5
-14 6 0 16 -16 23 -37 10 -31 9 -38 -4 -47 -55 -39 -54 -37 -20 -32 26 4 31 2
26 -10 -3 -8 -10 -14 -17 -13 -6 1 -20 1 -31 0 -17 -1 -18 -3 -5 -11 9 -6 182
-10 437 -10 l421 0 121 140 c67 77 116 140 109 141 -46 3 -81 16 -73 29 3 5
-1 10 -10 10 -9 0 -13 4 -10 10 3 5 0 10 -7 10 -9 0 -9 3 2 10 10 6 11 10 3
10 -7 0 -13 5 -13 11 0 7 10 9 25 5 29 -7 75 18 75 41 0 8 5 11 10 8 17 -11
11 11 -8 28 -21 19 -48 22 -57 7 -4 -7 -17 -4 -34 6 -22 13 -35 14 -57 7 -26
-9 -31 -7 -52 21 -12 17 -22 44 -22 63 0 18 -3 32 -7 32 -23 -4 -36 2 -27 11
5 5 100 10 222 10 116 1 214 5 216 8 2 4 57 5 123 2 133 -6 285 -4 610 7 122
4 233 5 245 1 l23 -6 -22 -1 c-20 -1 -23 -6 -23 -41 0 -44 -14 -54 -89 -66
-20 -3 -37 -9 -39 -13 -1 -4 -18 -5 -37 -3 -19 2 -35 0 -35 -4 0 -5 -19 -9
-43 -9 -50 1 -85 -31 -69 -62 13 -25 4 -43 -19 -43 -11 0 -18 -4 -15 -8 6 -10
-89 -66 -128 -76 -26 -6 -15 -16 156 -133 100 -69 194 -134 207 -144 17 -14
40 -19 82 -19 l59 0 1 43 c1 23 1 44 1 48 0 3 8 11 20 18 12 8 17 8 13 1 -4
-6 -1 -17 5 -25 9 -11 9 -15 1 -15 -6 0 -11 -5 -11 -11 0 -5 5 -7 10 -4 13 8
40 -19 40 -39 0 -9 4 -16 8 -16 12 0 9 101 -2 120 -6 9 -1 7 13 -4 14 -13 18
-22 10 -27 -8 -5 -8 -8 0 -13 6 -4 11 -2 11 4 0 6 5 8 13 4 6 -4 -6 12 -28 37
-22 24 -42 43 -45 42 -8 -2 -11 43 -13 254 -1 112 1 203 4 203 4 0 10 33 13
73 9 88 34 203 52 239 16 31 18 84 4 93 -5 3 -10 14 -10 23 0 21 -56 82 -76
82 -7 0 -14 5 -14 11 0 5 -4 8 -8 5 -4 -2 -8 3 -9 12 -4 42 -22 299 -23 320 0
26 -26 30 -32 5 -2 -10 1 -92 7 -183 6 -91 10 -168 9 -171 -2 -3 -62 -5 -133
-5 l-131 1 -5 150 c-3 83 -8 169 -11 193 l-6 42 75 0 c42 0 79 5 82 10 6 10
-9 12 -97 14 -26 1 -51 6 -56 11 -5 6 -15 62 -21 125 -21 194 -41 341 -58 433
-14 78 -18 88 -40 93 -14 4 -169 5 -345 2 -288 -4 -322 -6 -333 -22 -7 -9 -10
-26 -7 -38 4 -15 2 -19 -8 -13 -8 5 -10 20 -7 43 6 32 5 33 -8 16 -13 -17 -14
-16 -8 15 4 25 3 32 -5 27 -7 -4 -12 -3 -12 3 0 5 5 13 10 16 15 9 12 25 -5
25 -13 0 -14 4 -5 20 12 23 30 27 30 6 0 -8 15 -16 38 -19 20 -3 61 -11 90
-18 39 -10 63 -10 100 -2 26 6 77 18 113 26 81 19 132 44 219 108 118 87 144
109 262 226 76 75 121 113 129 108 7 -5 10 -4 6 2 -4 6 9 27 28 47 39 41 43
40 19 -7 -37 -71 -37 -69 -16 -63 13 5 22 1 26 -10 4 -11 2 -15 -8 -11 -8 3
-17 -1 -20 -9 -8 -21 -8 -26 2 -21 4 3 8 -13 9 -34 0 -21 -3 -39 -8 -39 -5 0
-9 -5 -9 -11 0 -6 8 -8 18 -5 10 4 7 -2 -8 -14 -19 -15 -22 -22 -12 -28 10 -7
11 -22 3 -68 -8 -49 -7 -61 6 -71 10 -8 14 -22 11 -38 -5 -22 -3 -25 16 -20
11 4 17 3 11 -2 -9 -7 -13 -25 -16 -80 -1 -13 -7 -23 -13 -23 -7 0 -7 -3 -1
-8 6 -4 15 -16 21 -27 9 -16 8 -22 -5 -32 -14 -11 -13 -12 6 -13 12 0 25 -4
28 -10 3 -6 -4 -10 -17 -10 -19 0 -23 -6 -24 -30 -1 -24 1 -28 12 -19 8 6 14
18 14 25 0 8 9 14 20 14 14 0 20 7 21 23 1 12 2 27 4 32 1 6 3 16 3 23 1 6 9
12 17 12 12 0 14 7 9 27 -6 22 -4 25 10 20 11 -5 16 -1 16 12 0 20 45 55 60
46 5 -3 11 -1 14 4 9 13 95 -17 125 -43 16 -14 25 -17 28 -9 2 7 11 9 19 6 8
-3 14 -1 14 4 0 6 -33 27 -73 47 -140 72 -196 110 -206 139 -14 37 -30 245
-35 422 -4 158 9 259 36 294 10 13 18 20 18 15 0 -5 7 0 16 11 13 17 16 18 24
5 7 -11 10 -8 10 15 1 35 12 52 58 84 17 12 32 28 31 34 0 9 -2 9 -5 0 -3 -7
-21 -22 -40 -34 -39 -23 -100 -20 -111 6 -3 8 -9 12 -14 9 -11 -6 -3 49 10 75
7 14 21 106 35 231 2 19 5 37 5 39 1 2 8 -2 16 -9 12 -10 17 -5 32 27 11 22
26 39 38 41 20 3 27 14 79 120 15 28 31 52 36 52 6 0 9 -3 8 -7 -4 -19 15
-153 22 -153 5 0 10 26 13 58 5 66 14 119 21 131 9 14 -25 23 -40 10 -7 -6
-19 -7 -26 -3 -7 4 -10 4 -7 0 7 -8 -36 -56 -51 -56 -5 0 -12 -9 -15 -20 -3
-11 -14 -24 -24 -30 -15 -8 -18 -5 -16 14 2 13 6 33 10 45 7 22 56 61 81 65 9
1 19 7 22 12 4 5 16 10 26 9 11 0 21 6 24 13 2 6 -1 12 -8 12 -6 0 -8 -5 -4
-12 4 -7 3 -8 -5 -4 -6 4 -9 11 -6 16 8 12 46 8 41 -5 -18 -43 -18 -45 -4 -40
10 4 14 -4 16 -27 4 -49 12 -47 12 3 0 27 4 39 9 31 4 -7 7 -26 6 -43 -1 -20
1 -27 8 -20 7 7 7 29 0 66 l-10 55 31 9 c26 7 31 12 29 37 -1 15 2 31 7 34 5
3 10 23 12 44 1 21 8 40 15 43 7 3 10 9 7 14 -3 5 -10 7 -15 4 -5 -4 -9 3 -9
14 0 24 10 27 28 9 9 -9 12 -9 12 0 0 7 -7 15 -15 18 -8 4 -15 13 -15 21 0 10
6 13 16 9 9 -3 18 -6 20 -6 3 0 2 -4 -1 -10 -4 -6 1 -7 11 -3 11 4 13 8 6 11
-7 2 -10 8 -6 13 3 5 2 9 -3 8 -18 -3 -33 2 -33 11 0 6 8 10 18 10 20 0 45 24
55 53 9 24 38 18 53 -11 13 -26 53 -66 60 -60 2 3 -5 14 -17 26 -11 12 -17 27
-14 32 3 6 0 10 -7 10 -24 0 -70 62 -71 97 -1 17 -4 30 -8 27 -4 -2 -11 2 -17
9 -8 9 -4 12 13 12 13 0 23 -4 22 -9 -1 -5 4 -11 12 -14 8 -3 11 0 7 7 -4 6
-2 11 3 11 17 0 13 -18 -6 -29 -14 -7 -13 -9 9 -8 16 1 24 7 21 15 -3 6 2 12
11 12 13 0 15 -6 10 -27 -10 -41 -13 -44 -34 -33 -30 16 -31 12 -4 -17 13 -14
27 -23 31 -20 3 4 0 7 -7 7 -11 0 -12 2 -1 13 10 10 15 9 25 -5 7 -10 18 -18
24 -18 7 0 9 8 5 18 -5 14 -3 15 8 5 19 -18 34 -16 19 2 -8 9 -9 15 -2 15 6 0
14 -5 17 -10 4 -6 9 -8 13 -6 4 2 15 -6 24 -19 14 -19 15 -23 3 -21 -8 1 -18
5 -21 9 -14 13 -23 7 -17 -10 6 -16 3 -15 -16 2 l-23 20 3 -25 c3 -19 9 -24
24 -22 11 2 22 8 25 13 8 12 50 -18 50 -35 0 -17 39 -65 40 -49 0 6 -5 13 -11
15 -6 2 -12 16 -11 31 0 15 -5 27 -10 27 -5 0 -6 5 -3 11 5 7 14 4 26 -7 24
-21 25 -35 2 -27 -13 4 -15 3 -8 -5 17 -18 75 -22 75 -6 0 8 -5 14 -11 14 -5
0 -8 4 -4 9 3 5 1 12 -5 16 -17 10 -2 24 20 18 18 -5 25 -21 21 -46 -1 -5 4
-5 10 -2 6 4 8 17 5 29 -5 19 -4 19 15 -4 12 -14 17 -19 13 -11 -4 9 -3 12 4
8 5 -4 8 -16 5 -27 -4 -15 -9 -18 -18 -10 -13 11 -45 3 -45 -11 0 -10 3 -11
45 -13 29 -2 30 -3 33 -59 2 -43 7 -57 18 -57 10 0 13 -6 10 -17 -3 -10 3 -31
14 -48 25 -37 26 -52 3 -34 -15 11 -16 11 -5 -1 15 -17 16 -64 1 -55 -6 4 -5
-2 3 -14 19 -31 27 -26 24 14 -2 20 0 37 4 40 4 2 5 17 2 33 -2 16 1 33 6 36
8 4 7 16 0 37 -7 22 -8 41 0 65 6 20 6 36 1 40 -5 3 -9 10 -9 16 0 7 9 2 21
-11 20 -21 20 -23 5 -40 -14 -16 -15 -21 -3 -32 7 -8 12 -20 9 -27 -2 -7 2
-21 10 -30 14 -17 38 -67 38 -80 0 -4 -11 5 -24 18 -13 14 -21 32 -19 40 2 8
-2 5 -9 -8 -7 -15 -8 -26 -2 -30 12 -8 13 -52 2 -52 -4 0 -5 -7 -1 -16 3 -8
12 -13 20 -10 9 4 21 -10 36 -42 12 -26 26 -49 30 -51 5 -2 13 -15 19 -30 l11
-26 7 30 c3 17 4 37 1 45 -4 12 -6 12 -9 -2 -4 -22 -18 -23 -26 -2 -9 22 -8
26 5 18 6 -3 4 5 -6 19 -9 14 -23 28 -32 31 -9 4 -13 9 -10 13 4 3 14 0 23 -8
15 -12 16 -11 9 11 -16 51 -16 54 -1 30 8 -14 15 -35 16 -46 0 -12 11 -29 25
-38 21 -14 25 -14 25 -2 0 23 29 27 40 6 5 -10 10 -25 9 -32 0 -7 -4 -3 -9 10
-5 12 -14 22 -20 22 -6 0 -9 -4 -6 -9 4 -5 0 -11 -6 -14 -10 -3 -10 -7 1 -21
8 -9 11 -19 7 -23 -3 -3 -6 -1 -6 5 0 7 -3 12 -7 12 -5 0 -8 -15 -8 -32 1 -20
6 -32 13 -31 16 4 15 -16 -3 -51 -14 -26 -14 -35 0 -89 11 -41 12 -64 5 -71
-7 -7 -10 -3 -10 11 0 11 -6 26 -14 32 -11 9 -12 6 -8 -14 2 -14 14 -32 25
-40 17 -12 19 -20 13 -62 -11 -71 -7 -134 9 -150 8 -8 15 -26 15 -41 1 -22 2
-24 10 -11 6 10 6 28 0 45 -16 53 -31 127 -26 131 2 2 14 -4 25 -14 16 -13 21
-30 22 -73 1 -30 3 -47 6 -37 2 9 9 17 14 17 5 0 6 12 3 28 -5 22 -4 25 6 15
11 -10 11 -20 3 -48 -6 -20 -7 -35 -2 -35 5 0 9 -9 9 -21 0 -15 5 -19 15 -15
12 4 13 2 3 -13 -8 -13 -8 -25 1 -47 l11 -29 -5 32 c-5 34 10 55 17 25 3 -9 4
-47 3 -84 -1 -46 2 -65 9 -61 8 5 8 3 0 -8 -12 -16 -12 -97 -1 -117 5 -6 4
-12 -2 -12 -6 0 -8 -6 -6 -13 3 -7 -4 -13 -20 -13 -21 -2 -23 1 -15 12 7 7 9
21 6 32 -7 20 -19 136 -20 190 -1 17 -4 32 -8 32 -5 0 -8 19 -9 43 0 35 -2 38
-9 20 -5 -12 -7 -39 -4 -60 8 -56 8 -66 -1 -86 -6 -14 -4 -16 10 -11 15 6 16
3 9 -17 -4 -13 -7 -52 -6 -86 1 -34 -3 -65 -8 -68 -6 -4 -8 -11 -5 -16 4 -5 2
-9 -4 -9 -5 0 -9 17 -7 38 1 20 -1 47 -5 59 -4 12 -4 35 1 52 5 17 5 31 0 31
-13 0 -19 -30 -18 -88 1 -37 -3 -56 -13 -62 -10 -7 -16 -4 -21 8 -4 9 -7 12
-7 5 -2 -22 11 -42 24 -37 8 3 14 -6 18 -28 2 -18 1 -34 -4 -36 -4 -2 -5 -10
-2 -17 4 -12 7 -12 20 0 17 18 33 19 33 4 0 -8 4 -8 14 0 7 6 11 22 9 34 -7
33 22 60 48 46 11 -5 17 -15 13 -21 -4 -7 -10 -6 -16 3 -6 10 -7 7 -3 -9 5
-17 1 -28 -12 -37 -17 -13 -16 -14 6 -10 23 4 23 4 6 -15 -9 -10 -14 -23 -11
-29 10 -16 14 -71 5 -71 -5 0 -9 15 -9 33 -1 29 -29 97 -30 71 0 -7 -7 -14
-15 -18 -8 -3 -14 -2 -14 2 3 20 -3 20 -21 2 -21 -21 -27 -35 -10 -25 6 3 10
1 10 -5 0 -6 -6 -13 -14 -16 -8 -3 -16 -14 -19 -25 -3 -12 -1 -17 6 -13 7 4 6
1 -1 -7 -11 -12 -16 -11 -28 6 -8 11 -12 26 -8 35 12 29 17 55 8 47 -4 -4 -14
3 -21 15 -12 21 -13 20 -7 -13 3 -20 1 -46 -5 -57 -8 -15 -7 -23 3 -31 7 -6
16 -8 19 -4 11 10 8 -16 -3 -37 -8 -16 -8 -18 5 -14 8 4 15 10 15 15 0 5 5 9
10 9 11 0 13 -30 4 -55 -5 -13 -8 -14 -15 -3 -6 10 -11 10 -21 0 -9 -9 -9 -15
0 -24 7 -7 12 -17 12 -22 0 -6 -5 -4 -10 4 -8 13 -10 13 -10 -1 0 -20 -31 -49
-52 -49 -17 0 -51 -44 -41 -53 8 -8 33 19 33 35 0 10 3 9 10 -2 14 -21 12 -30
-6 -30 -8 0 -12 -4 -9 -10 3 -5 1 -10 -6 -10 -7 0 -10 -3 -7 -6 4 -3 16 0 28
6 16 9 20 18 16 35 -4 16 -1 25 10 29 12 5 15 2 10 -10 -5 -12 -2 -15 10 -10
8 3 18 6 20 6 2 0 4 10 4 23 0 18 2 19 10 7 5 -8 10 -10 10 -5 0 6 5 2 11 -8
6 -10 8 -21 5 -24 -3 -4 -6 -1 -6 6 0 9 -4 8 -15 -3 -19 -19 -19 -27 0 -20 17
7 19 -18 5 -51 -8 -18 -9 -18 -9 6 -1 26 -17 49 -35 49 -5 0 -6 -3 -3 -7 4 -3
-3 -17 -15 -30 -25 -26 -14 -32 14 -6 16 14 18 15 18 0 0 -9 -4 -18 -9 -21 -5
-3 -7 -14 -5 -24 3 -9 -5 -30 -16 -47 l-20 -30 5 50 c4 43 3 47 -7 25 -6 -14
-10 -30 -9 -36 1 -6 -10 -19 -24 -28 -14 -9 -25 -12 -25 -6 0 5 -5 10 -10 10
-7 0 -9 -16 -6 -40 3 -22 1 -40 -5 -40 -5 0 -9 5 -9 10 0 6 -5 10 -11 10 -6 0
-9 -7 -5 -15 3 -8 1 -15 -5 -15 -5 0 -9 -6 -8 -12 4 -34 -4 -40 -16 -13 l-14
30 -1 -28 c0 -24 -3 -27 -20 -22 -15 5 -20 2 -20 -12 0 -15 2 -16 10 -3 5 8
10 11 10 5 -1 -13 -30 -52 -30 -39 0 5 -5 1 -11 -9 -12 -21 -32 -22 -48 -3
-13 15 4 26 40 26 10 0 19 4 19 8 0 14 -71 0 -77 -14 -3 -8 -13 -14 -23 -14
-13 0 -18 -7 -16 -25 2 -13 -1 -22 -5 -19 -19 11 -8 -16 12 -30 12 -8 18 -19
14 -25 -8 -14 8 -14 22 0 6 6 9 19 5 28 -5 13 -3 14 9 4 12 -10 18 -10 27 -1
9 9 12 9 12 0 0 -7 -8 -16 -17 -19 -10 -4 -28 -14 -40 -23 -22 -17 -22 -18 -3
-35 10 -9 24 -14 31 -9 7 4 10 3 6 -3 -4 -7 8 -14 31 -18 20 -3 57 -16 82 -28
25 -11 50 -21 56 -22 5 0 23 -11 40 -23 43 -34 298 -192 309 -192 5 0 100 -65
147 -101 l28 -21 -4 674 c-1 370 -3 678 -4 683 0 6 2 120 4 255 3 144 1 253
-5 265 -16 35 -21 55 -12 55 5 0 12 -6 14 -12 10 -25 7 317 -3 352 -6 22 -6
38 0 44 6 6 10 131 10 328 l0 318 -335 0 c-261 0 -335 -3 -335 -12 0 -9 -3
-10 -8 -2 -4 6 -38 12 -75 13 -54 1 -67 -1 -61 -11 6 -10 4 -10 -7 -2 -19 14
-163 18 -154 4 3 -5 1 -10 -4 -10 -6 0 -11 5 -11 10 0 7 -615 10 -1825 10
l-1825 0 1 -1542z m3529 1522 c0 -5 -2 -10 -4 -10 -3 0 -8 5 -11 10 -3 6 -1
10 4 10 6 0 11 -4 11 -10z m80 -12 c0 -6 -7 -7 -16 -4 -9 3 -18 6 -20 6 -3 0
-3 4 1 10 7 11 35 2 35 -12z m160 8 c0 -11 -19 -15 -25 -6 -3 5 1 10 9 10 9 0
16 -2 16 -4z m-65 -16 c3 -5 1 -10 -4 -10 -6 0 -11 5 -11 10 0 6 2 10 4 10 3
0 8 -4 11 -10z m-165 -10 c0 -5 -2 -10 -4 -10 -3 0 -8 5 -11 10 -3 6 -1 10 4
10 6 0 11 -4 11 -10z m140 -7 c0 -10 -4 -14 -8 -8 -4 6 -11 13 -16 18 -5 4 -2
7 7 7 10 0 17 -8 17 -17z m-100 -3 c0 -5 -4 -10 -10 -10 -5 0 -10 5 -10 10 0
6 5 10 10 10 6 0 10 -4 10 -10z m60 -17 c0 -7 5 -13 11 -13 5 0 7 5 4 11 -4 6
2 5 14 -3 29 -18 26 -25 -9 -20 -16 2 -30 8 -30 13 0 5 -6 9 -14 9 -8 0 -17 4
-20 9 -3 5 5 8 19 7 14 0 25 -7 25 -13z m328 5 c7 -7 12 -17 12 -22 0 -6 -6
-4 -13 5 -7 9 -19 18 -27 22 -13 5 -13 6 1 6 8 1 20 -4 27 -11z m-438 -9 c0
-5 5 -7 10 -4 6 3 10 1 10 -4 0 -16 -16 -13 -30 4 -9 10 -9 15 -1 15 6 0 11
-5 11 -11z m197 -8 c-1 -19 -27 -18 -27 1 0 5 5 6 10 3 6 -3 10 -1 10 4 0 6 2
11 4 11 3 0 4 -9 3 -19z m112 -4 c0 -9 -2 -8 -6 1 -2 6 -10 9 -15 6 -7 -4 -8
-2 -4 5 9 13 26 5 25 -12z m48 -14 c-3 -10 -5 -4 -5 12 0 17 2 24 5 18 2 -7 2
-21 0 -30z m43 -5 c0 -13 -23 -5 -28 10 -2 7 2 10 12 6 9 -3 16 -11 16 -16z
m-313 -10 c-3 -8 -6 -5 -6 6 -1 11 2 17 5 13 3 -3 4 -12 1 -19z m-60 6 c-3 -3
-12 -4 -19 -1 -8 3 -5 6 6 6 11 1 17 -2 13 -5z m35 -1 c-6 -2 -9 -10 -6 -15 4
-7 2 -8 -5 -4 -13 9 -5 26 12 25 9 0 8 -2 -1 -6z m58 -4 c0 -5 5 -7 10 -4 6 3
10 1 10 -4 0 -13 -3 -13 -24 -5 -18 7 -22 24 -6 24 6 0 10 -5 10 -11z m140 1
c0 -5 -2 -10 -4 -10 -3 0 -8 5 -11 10 -3 6 -1 10 4 10 6 0 11 -4 11 -10z m-86
-12 c-5 -8 -2 -9 10 -5 13 5 15 3 7 -12 -11 -20 3 -41 26 -41 27 0 11 -15 -18
-17 -25 -2 -30 1 -25 14 4 9 1 20 -6 25 -10 6 -10 8 2 8 12 0 13 2 1 9 -12 8
-8 31 5 31 3 0 2 -5 -2 -12z m77 -30 c11 -21 11 -22 -4 -9 -10 7 -17 17 -17
22 0 15 9 10 21 -13z m32 2 c3 -11 1 -18 -4 -14 -5 3 -9 12 -9 20 0 20 7 17
13 -6z m-63 6 c0 -3 -4 -8 -10 -11 -5 -3 -10 -1 -10 4 0 6 5 11 10 11 6 0 10
-2 10 -4z m190 -21 c9 -11 7 -12 -9 -8 -11 3 -25 11 -31 18 -9 11 -7 12 9 8
11 -3 25 -11 31 -18z m-140 -45 c0 -5 -2 -10 -4 -10 -3 0 -8 5 -11 10 -3 6 -1
10 4 10 6 0 11 -4 11 -10z m66 -21 c3 -32 5 -33 15 -19 9 13 10 13 6 0 -5 -18
-39 -20 -44 -2 -3 6 1 12 7 12 9 0 9 5 -1 17 -12 14 -12 16 1 11 8 -2 16 -11
16 -19z m209 5 c19 -14 19 -14 -5 -11 -13 2 -26 9 -28 15 -5 16 9 14 33 -4z
m-102 -24 c3 -11 1 -18 -4 -14 -5 3 -9 12 -9 20 0 20 7 17 13 -6z m152 0 c3
-5 1 -10 -4 -10 -6 0 -11 5 -11 10 0 6 2 10 4 10 3 0 8 -4 11 -10z m-1609 -20
c0 -11 -4 -20 -8 -20 -10 0 -11 24 -1 33 9 9 9 10 9 -13z m107 -4 c12 -17 14
-17 20 -2 6 14 10 14 43 -5 45 -25 95 -32 107 -16 5 7 6 3 2 -10 -6 -23 5 -29
43 -24 6 1 12 -5 12 -14 0 -9 -4 -13 -10 -10 -5 3 -10 2 -10 -2 0 -5 9 -14 20
-21 25 -15 26 -34 3 -25 -17 6 -16 5 0 -15 11 -11 16 -25 13 -30 -3 -5 1 -15
9 -22 14 -11 14 -15 -1 -37 -8 -14 -13 -31 -10 -39 3 -8 -1 -14 -9 -14 -8 0
-15 -4 -15 -10 0 -5 -8 -10 -17 -10 -17 -1 -17 -1 0 -14 18 -14 23 -36 8 -36
-5 0 -11 -7 -14 -14 -4 -10 -1 -13 8 -10 10 4 12 -3 10 -30 -2 -20 0 -38 5
-41 4 -3 7 -16 5 -30 -1 -17 3 -25 14 -26 11 0 12 -2 3 -6 -10 -4 -9 -9 5 -19
16 -13 15 -13 -9 -5 -27 10 -67 11 -66 1 2 -20 -6 -27 -32 -28 -16 0 -30 3
-30 7 0 5 -18 8 -40 7 -22 0 -40 -4 -40 -9 0 -4 -6 -7 -12 -6 -26 5 -108 -13
-102 -22 3 -5 -13 -9 -36 -9 -23 0 -39 -3 -37 -7 3 -5 -16 -8 -42 -9 -25 -1
-65 -10 -88 -22 -35 -16 -43 -17 -43 -6 0 10 -10 5 -28 -13 -27 -28 -35 -64
-18 -80 6 -5 6 -2 1 7 -5 8 -4 12 0 7 11 -9 14 -47 4 -47 -4 0 -5 -10 -1 -22
3 -14 7 -17 10 -9 9 26 38 46 70 48 18 1 30 -2 27 -8 -4 -5 -2 -9 4 -9 5 0 13
5 16 10 3 6 10 10 16 10 14 0 11 -28 -3 -33 -7 -3 -4 -6 7 -7 17 -2 16 -3 -5
-10 -21 -7 -17 -8 18 -7 23 0 42 4 42 8 0 4 10 5 23 3 l22 -5 -23 10 c-12 6
-30 7 -40 4 -15 -6 -15 -5 -3 11 18 22 69 48 74 38 2 -4 10 -24 16 -44 7 -21
17 -38 22 -38 6 0 7 5 4 10 -3 6 2 11 12 11 65 4 89 3 96 -6 4 -5 5 2 1 16 -9
41 13 44 31 5 13 -28 19 -33 30 -23 7 7 10 19 8 27 -3 11 -1 10 10 -3 13 -15
15 -15 20 -2 4 9 13 12 24 8 17 -6 17 -6 1 10 -9 9 -23 17 -30 17 -10 0 -10 2
1 9 9 6 10 11 2 15 -6 4 -11 15 -10 24 0 11 2 12 6 4 2 -6 10 -9 15 -5 6 3 32
7 57 8 25 2 54 6 64 10 12 5 17 2 17 -9 0 -27 30 -13 36 17 1 4 2 10 3 13 0 4
8 1 17 -7 9 -7 14 -22 11 -36 -3 -15 1 -23 9 -23 18 0 19 -46 2 -54 -10 -5
-10 -7 0 -12 9 -4 11 -26 6 -87 -3 -45 -10 -84 -14 -87 -5 -3 -12 -19 -16 -35
-4 -17 -12 -39 -17 -50 -12 -22 -12 -22 -20 -88 -3 -26 -8 -51 -12 -56 -3 -5
-6 -28 -7 -51 -1 -25 -6 -39 -12 -37 -7 3 -10 -13 -9 -46 1 -28 -3 -58 -10
-65 -9 -12 -8 -14 8 -11 15 3 21 14 23 42 2 23 7 35 14 31 6 -4 8 1 3 15 -4
14 -1 23 9 27 9 3 16 10 16 16 0 5 -4 6 -10 3 -5 -3 -10 1 -10 10 0 9 4 14 9
11 5 -4 11 -1 13 6 5 15 38 3 38 -14 0 -9 -3 -9 -10 2 -5 8 -12 11 -16 7 -4
-3 -1 -14 6 -23 8 -9 10 -18 4 -22 -5 -4 -11 -18 -12 -32 -3 -20 -2 -22 11
-12 11 10 17 9 27 -3 7 -8 8 -15 4 -15 -5 0 -15 -24 -22 -52 -19 -74 -17 -67
-39 -125 -3 -10 -7 -21 -7 -25 -1 -4 -7 -13 -14 -20 -10 -10 -10 -6 -1 20 6
18 9 36 5 39 -3 4 -6 0 -6 -7 0 -7 -13 -34 -29 -60 -16 -27 -27 -51 -23 -56 4
-4 1 -4 -5 0 -7 4 -13 15 -13 24 0 12 -3 13 -12 4 -8 -8 -8 -15 -1 -24 8 -9 7
-16 -2 -25 -7 -6 -16 -9 -19 -6 -3 4 -6 1 -6 -6 0 -7 -10 -22 -22 -33 -13 -11
-16 -16 -8 -12 13 7 13 5 1 -9 -7 -9 -17 -14 -22 -11 -5 3 -6 -3 -2 -12 4 -12
2 -15 -8 -12 -8 3 -25 -6 -37 -20 -19 -20 -26 -22 -33 -11 -5 8 -9 9 -9 3 0
-5 6 -16 13 -23 10 -11 9 -12 -1 -7 -20 12 -98 -46 -87 -64 3 -4 -3 -6 -13 -3
-19 4 -41 -14 -40 -32 1 -5 -13 -17 -30 -26 -17 -9 -28 -20 -24 -24 4 -5 -1
-5 -10 -2 -10 4 -18 2 -18 -4 0 -6 -9 -8 -20 -4 -11 3 -20 2 -20 -3 0 -5 -9
-12 -20 -15 -11 -3 -20 0 -20 5 0 7 -5 7 -13 -1 -8 -6 -47 -9 -97 -8 -67 3
-85 7 -96 22 -12 16 -14 16 -14 3 0 -14 -4 -14 -25 -5 -14 7 -25 18 -25 25 0
7 -4 11 -8 8 -9 -6 -42 29 -42 44 0 5 -6 7 -13 4 -8 -3 -20 3 -28 12 -12 15
-11 16 11 10 20 -6 18 -2 -10 16 -25 16 -35 29 -32 43 2 16 1 17 -7 5 -10 -13
-15 -7 -12 13 0 4 -2 7 -7 7 -11 0 -46 69 -39 77 4 3 7 1 7 -6 0 -7 5 -9 11
-5 18 11 -12 24 -32 13 -14 -7 -16 -5 -12 10 2 10 -1 25 -9 32 -28 31 -78 122
-78 142 0 8 -7 20 -15 27 -8 7 -15 22 -15 34 0 11 -9 44 -20 73 -23 61 -26 74
-35 176 -5 47 -13 84 -22 93 -9 8 -13 18 -10 21 3 3 -1 13 -10 21 -9 10 -11
18 -5 20 7 2 6 15 -4 37 -8 19 -14 53 -14 75 0 24 -5 40 -12 40 -9 0 -9 3 0
12 16 16 15 38 -1 38 -7 0 -13 8 -14 18 -1 9 -3 23 -5 31 -2 7 3 16 10 18 7 3
10 -1 7 -9 -4 -9 3 -14 21 -16 14 -1 33 -11 42 -23 10 -11 30 -22 46 -23 25
-3 27 -1 23 21 -4 22 -1 24 19 20 13 -2 21 0 17 6 -3 5 3 6 15 3 11 -4 23 -2
27 4 10 15 23 12 28 -7 4 -14 5 -14 6 3 1 24 33 38 50 21 8 -8 11 -8 11 0 0 8
10 9 36 2 25 -8 39 -7 50 2 11 9 17 9 28 0 17 -14 6 -72 -24 -131 -11 -22 -20
-46 -20 -55 0 -8 -5 -15 -11 -15 -8 0 -8 -4 0 -14 7 -8 9 -28 6 -46 -4 -20 -2
-29 5 -25 12 8 13 0 1 -23 -15 -29 -33 -147 -26 -174 4 -15 18 -34 31 -43 14
-9 29 -26 35 -38 12 -27 47 -43 111 -52 39 -6 49 -4 54 9 3 9 11 13 18 9 6 -3
8 -3 4 1 -4 5 9 24 28 44 25 26 45 36 70 39 37 2 64 18 64 35 0 6 -6 6 -14 -1
-8 -6 -30 -13 -50 -15 -35 -2 -69 -25 -108 -72 -18 -22 -28 -21 -116 2 -7 2
-20 20 -28 40 -17 40 -38 66 -47 58 -3 -3 -1 13 5 36 8 29 13 37 19 28 6 -9 9
-3 10 17 1 17 3 41 6 55 8 47 8 138 1 134 -15 -10 -8 72 9 95 15 22 20 84 10
131 -11 56 -73 118 -111 111 -5 -1 -6 5 -3 13 4 10 -4 16 -29 20 -19 4 -34 11
-34 16 0 6 -13 10 -30 10 -42 0 -140 39 -140 56 0 17 -26 19 -33 2 -3 -8 -6
-5 -6 5 -1 10 -5 15 -11 12 -16 -10 -12 11 5 25 12 10 13 16 4 27 -9 11 -8 17
7 29 10 9 13 13 7 9 -18 -9 -16 10 2 25 14 11 14 14 0 24 -11 8 -14 28 -11 84
2 40 0 75 -4 77 -6 4 -7 26 -1 58 0 4 8 7 16 7 8 0 15 4 15 9 0 26 148 35 262
16 25 -4 68 1 123 16 47 12 94 19 105 16 11 -3 18 -2 15 2 -5 10 54 7 79 -4
11 -5 26 -4 36 3 9 6 23 7 30 2 8 -5 21 -5 29 0 17 9 23 10 44 10 7 0 18 14
25 32 6 17 14 29 18 26 3 -4 1 -17 -6 -30 l-11 -23 20 24 c12 13 21 35 22 50
0 25 0 25 9 4 12 -30 28 -29 36 1 7 28 28 28 47 2z m1441 8 c3 -8 2 -12 -4 -9
-6 3 -10 10 -10 16 0 14 7 11 14 -7z m-1499 -3 c3 -5 1 -12 -5 -16 -5 -3 -10
1 -10 9 0 18 6 21 15 7z m1560 -11 c3 -5 1 -10 -4 -10 -6 0 -11 5 -11 10 0 6
2 10 4 10 3 0 8 -4 11 -10z m45 -21 c0 -6 -4 -7 -10 -4 -5 3 -10 11 -10 16 0
6 5 7 10 4 6 -3 10 -11 10 -16z m-106 -20 c3 -17 6 -41 6 -52 0 -38 -23 -1
-27 43 -5 47 12 54 21 9z m-38 -26 c-7 -7 -26 7 -26 19 0 6 6 6 15 -2 9 -7 13
-15 11 -17z m374 -5 c0 -6 -7 -5 -15 2 -8 7 -15 17 -15 22 0 6 7 5 15 -2 8 -7
15 -17 15 -22z m-1986 -9 c-3 -5 -10 -7 -15 -3 -5 3 -7 10 -3 15 3 5 10 7 15
3 5 -3 7 -10 3 -15z m1717 -2 c-10 -9 -11 -8 -5 6 3 10 9 15 12 12 3 -3 0 -11
-7 -18z m39 -18 c0 -6 -4 -7 -10 -4 -5 3 -10 11 -10 16 0 6 5 7 10 4 6 -3 10
-11 10 -16z m176 1 c0 -20 -7 -25 -19 -14 -7 7 2 34 12 34 4 0 7 -9 7 -20z
m-174 -72 c3 -16 1 -28 -3 -28 -5 0 -9 13 -9 29 0 16 -6 31 -15 35 -8 3 -15
13 -15 22 0 25 36 -24 42 -58z m223 62 c3 -5 2 -10 -4 -10 -5 0 -13 5 -16 10
-3 6 -2 10 4 10 5 0 13 -4 16 -10z m-332 -9 c4 -1 3 -11 -4 -22 -7 -13 -7 -24
-2 -28 13 -8 23 -50 16 -68 -8 -19 -23 3 -23 34 0 12 -4 23 -8 25 -5 2 -12 17
-15 35 -5 26 -3 31 11 28 9 -2 21 -4 25 -4z m517 -47 c0 -8 -2 -14 -4 -14 -5
0 -36 60 -36 69 1 12 40 -42 40 -55z m-346 20 c5 -14 4 -15 -9 -4 -17 14 -19
20 -6 20 5 0 12 -7 15 -16z m164 -19 c-3 -3 -9 2 -12 12 -6 14 -5 15 5 6 7 -7
10 -15 7 -18z m112 -7 c0 -19 -2 -20 -10 -8 -13 19 -13 30 0 30 6 0 10 -10 10
-22z m117 -20 c-3 -7 -5 -2 -5 12 0 14 2 19 5 13 2 -7 2 -19 0 -25z m-480 2
c-1 -12 -5 -16 -10 -11 -5 5 -6 14 -3 20 11 16 15 13 13 -9z m163 0 c0 -5 -2
-10 -4 -10 -3 0 -8 5 -11 10 -3 6 -1 10 4 10 6 0 11 -4 11 -10z m110 -5 c7 -9
8 -15 2 -15 -5 0 -12 7 -16 15 -3 8 -4 15 -2 15 2 0 9 -7 16 -15z m160 -10 c0
-7 3 -22 6 -32 10 -27 -10 -3 -24 29 -9 23 -9 26 3 21 8 -3 15 -11 15 -18z
m-333 -8 c13 -10 8 -27 -7 -27 -5 0 -6 7 -3 17 4 11 3 14 -5 9 -7 -4 -12 -15
-12 -24 0 -15 -2 -15 -10 -2 -5 8 -10 23 -10 32 0 18 21 16 47 -5z m100 -19
c-3 -8 -6 -5 -6 6 -1 11 2 17 5 13 3 -3 4 -12 1 -19z m99 -35 c2 -21 6 -55 9
-75 2 -21 0 -38 -5 -38 -10 0 -12 9 -15 103 -2 63 6 70 11 10z m-148 9 c6 -18
-15 -14 -22 4 -4 10 -1 14 6 12 6 -2 14 -10 16 -16z m49 -22 c4 -30 -14 -15
-20 16 -3 18 -1 22 6 15 6 -6 12 -20 14 -31z m64 -17 c2 -23 0 -45 -4 -49 -4
-4 -7 11 -7 34 0 22 -3 49 -6 59 -5 12 -4 15 4 8 6 -5 12 -29 13 -52z m-181
23 c0 -8 -4 -18 -10 -21 -5 -3 -10 -4 -10 -1 0 2 -3 11 -6 20 -4 11 -1 16 10
16 9 0 16 -6 16 -14z m360 -31 c0 -5 -5 -3 -10 5 -5 8 -10 20 -10 25 0 6 5 3
10 -5 5 -8 10 -19 10 -25z m-320 -8 c0 -5 -4 -5 -10 -2 -5 3 -10 14 -10 23 0
15 2 15 10 2 5 -8 10 -19 10 -23z m-117 -30 c-8 -13 -23 3 -23 26 0 20 0 20
14 2 8 -11 12 -23 9 -28z m197 18 c0 -8 4 -15 9 -15 6 0 9 -9 8 -20 -2 -30
-11 -24 -23 15 -6 19 -7 35 -3 35 5 0 9 -7 9 -15z m240 -28 c0 -5 -4 -5 -10
-2 -5 3 -10 14 -10 23 0 15 2 15 10 2 5 -8 10 -19 10 -23z m-3700 3 c0 -5 -4
-10 -10 -10 -5 0 -10 5 -10 10 0 6 5 10 10 10 6 0 10 -4 10 -10z m195 -19 c-6
-21 -25 -29 -25 -11 0 6 5 10 10 10 6 0 10 8 10 17 0 9 3 14 6 10 3 -3 3 -15
-1 -26z m3152 4 c9 -24 -1 -27 -15 -5 -8 13 -8 20 -2 20 6 0 13 -7 17 -15z
m-3107 -50 c0 -5 -5 -3 -10 5 -5 8 -10 20 -10 25 0 6 5 3 10 -5 5 -8 10 -19
10 -25z m3200 4 c0 -5 -4 -9 -10 -9 -5 0 -10 7 -10 16 0 8 5 12 10 9 6 -3 10
-10 10 -16z m49 -55 c-2 -39 2 -59 12 -65 12 -7 11 -9 -2 -9 -19 0 -34 34 -34
78 0 17 -4 32 -10 32 -5 0 -3 5 5 10 10 6 11 10 3 10 -7 0 -13 5 -13 10 0 7 7
7 20 0 17 -9 20 -20 19 -66z m211 36 c0 -5 -2 -10 -4 -10 -3 0 -8 5 -11 10 -3
6 -1 10 4 10 6 0 11 -4 11 -10z m-135 -20 c3 -5 1 -10 -4 -10 -6 0 -11 5 -11
10 0 6 2 10 4 10 3 0 8 -4 11 -10z m65 -20 c0 -5 -4 -10 -10 -10 -5 0 -10 5
-10 10 0 6 5 10 10 10 6 0 10 -4 10 -10z m-1607 -20 c-3 -11 -10 -23 -16 -27
-5 -3 -8 -2 -5 3 3 5 8 17 11 27 9 24 16 22 10 -3z m1437 16 c0 -11 -19 -15
-25 -6 -3 5 1 10 9 10 9 0 16 -2 16 -4z m-23 -84 c-2 -35 2 -62 10 -70 7 -7
13 -18 13 -24 0 -6 -11 1 -25 16 -16 18 -25 22 -25 12 0 -24 12 -46 21 -40 5
3 9 -2 9 -10 0 -9 5 -16 10 -16 7 0 9 -21 6 -57 -5 -67 -14 -95 -27 -87 -5 3
-6 10 -3 16 4 6 2 8 -4 4 -6 -3 -13 -2 -17 4 -3 5 0 10 7 10 9 0 9 3 -2 10
-13 9 -13 11 0 20 8 5 10 10 4 10 -7 0 -15 12 -18 28 -4 15 -9 35 -12 45 -5
16 -3 17 15 8 24 -13 26 -9 9 22 -13 23 -21 116 -12 155 4 19 8 21 24 12 16
-9 19 -20 17 -68z m125 60 c-8 -2 -11 -16 -7 -40 l6 -37 -15 33 c-12 26 -13
36 -3 47 6 7 16 10 22 7 5 -3 4 -7 -3 -10z m39 -49 c-5 -9 -8 2 -8 29 -1 39
-1 41 7 14 5 -16 6 -36 1 -43z m115 20 c-4 -4 -11 -1 -16 7 -16 25 -11 35 7
17 9 -9 13 -20 9 -24z m-1761 -17 c18 -13 18 -14 -8 -9 -15 3 -27 9 -27 14 0
13 13 11 35 -5z m395 -15 c-10 -20 -30 -29 -30 -14 0 10 33 44 37 39 3 -2 0
-14 -7 -25z m1294 20 c4 -5 2 -20 -3 -32 -8 -22 -8 -22 -13 9 -4 30 4 43 16
23z m-1624 -17 c0 -8 -5 -12 -10 -9 -6 4 -8 11 -5 16 9 14 15 11 15 -7z m1519
-27 c1 -5 -3 -5 -9 -2 -5 3 -10 16 -9 28 0 21 1 21 9 2 5 -11 9 -24 9 -28z
m-43 17 c-3 -9 -6 -20 -6 -25 0 -5 -4 -9 -10 -9 -8 0 -8 23 -1 48 1 1 6 2 12
2 6 0 8 -7 5 -16z m214 6 c0 -5 -2 -10 -4 -10 -3 0 -8 5 -11 10 -3 6 -1 10 4
10 6 0 11 -4 11 -10z m-3439 -33 c-8 -8 -11 -7 -11 4 0 20 13 34 18 19 3 -7
-1 -17 -7 -23z m1802 -19 c-6 -30 -23 -39 -23 -13 0 9 -10 20 -22 25 l-23 9
23 0 c12 1 25 8 29 17 10 25 22 -5 16 -38z m-1688 -5 c-4 -21 -9 -49 -12 -63
-2 -14 -9 -29 -15 -35 -12 -11 -4 47 13 103 14 44 23 41 14 -5z m2995 21 c0
-8 -4 -12 -10 -9 -5 3 -10 10 -10 16 0 5 5 9 10 9 6 0 10 -7 10 -16z m190 -8
c0 -14 -4 -28 -10 -31 -6 -4 -10 7 -10 24 0 17 5 31 10 31 6 0 10 -11 10 -24z
m-3354 -24 c-8 -15 -18 -40 -22 -57 l-8 -30 -4 39 c-2 21 1 42 6 45 4 3 11 14
15 24 4 10 11 15 17 12 7 -4 5 -16 -4 -33z m75 -13 l-10 -24 0 26 c-1 14 2 29
6 33 12 12 14 -9 4 -35z m3230 6 c5 3 6 -1 3 -9 -3 -9 -1 -16 6 -16 6 0 8 -5
4 -11 -10 -16 -44 40 -36 60 5 13 8 11 10 -7 2 -12 8 -20 13 -17z m-3250 -22
c1 -10 1 -27 0 -38 0 -11 2 -14 5 -7 9 19 24 14 24 -8 0 -11 -4 -20 -9 -20
-15 0 -41 42 -41 67 0 27 19 32 21 6z m36 -15 c-3 -7 -5 -2 -5 12 0 14 2 19 5
13 2 -7 2 -19 0 -25z m1803 22 c0 -5 -5 -10 -11 -10 -5 0 -7 5 -4 10 3 6 8 10
11 10 2 0 4 -4 4 -10z m1400 -44 c0 -18 -17 8 -24 34 l-7 25 15 -25 c9 -14 15
-29 16 -34z m80 35 c0 -11 -4 -23 -10 -26 -6 -4 -10 5 -10 19 0 14 5 26 10 26
6 0 10 -9 10 -19z m140 5 c0 -3 -4 -8 -10 -11 -5 -3 -10 -1 -10 4 0 6 5 11 10
11 6 0 10 -2 10 -4z m-1460 -16 c0 -5 -4 -10 -10 -10 -5 0 -10 5 -10 10 0 6 5
10 10 10 6 0 10 -4 10 -10z m-2186 -15 c-7 -16 -24 -21 -24 -6 0 8 7 13 27 20
1 1 0 -6 -3 -14z m245 -44 c-6 -28 -15 -51 -20 -51 -12 0 -12 23 0 36 6 5 12
23 15 39 2 17 5 32 5 34 1 2 3 2 6 -1 3 -3 0 -28 -6 -57z m1791 50 c0 -6 -4
-13 -10 -16 -5 -3 -10 1 -10 9 0 9 5 16 10 16 6 0 10 -4 10 -9z m1553 -31 c-7
-28 -13 -25 -13 6 0 14 4 23 9 20 5 -3 7 -15 4 -26z m57 20 c0 -5 -2 -10 -4
-10 -3 0 -8 5 -11 10 -3 6 -1 10 4 10 6 0 11 -4 11 -10z m-206 -47 c3 -7 1
-13 -5 -13 -6 0 -9 -7 -5 -15 3 -8 0 -15 -5 -15 -6 0 -9 9 -6 20 3 11 -1 27
-9 34 -8 8 -14 17 -14 20 0 10 39 -18 44 -31z m68 -21 c-8 -24 -20 7 -14 36
l6 27 6 -25 c4 -14 5 -31 2 -38z m31 38 c3 -11 1 -20 -4 -20 -5 0 -9 9 -9 20
0 11 2 20 4 20 2 0 6 -9 9 -20z m-2053 6 c0 -3 -4 -8 -10 -11 -5 -3 -10 -1
-10 4 0 6 5 11 10 11 6 0 10 -2 10 -4z m-1490 -10 c0 -3 -4 -8 -10 -11 -5 -3
-10 -1 -10 4 0 6 5 11 10 11 6 0 10 -2 10 -4z m120 -17 c0 -6 -4 -7 -10 -4 -5
3 -10 11 -10 16 0 6 5 7 10 4 6 -3 10 -11 10 -16z m60 -1 c0 -16 -3 -19 -11
-11 -6 6 -8 16 -5 22 11 17 16 13 16 -11z m655 -57 c-3 -2 -5 1 -5 7 0 6 -10
12 -22 14 -29 4 -38 45 -11 50 13 2 21 -6 30 -31 7 -20 10 -37 8 -40z m2777
54 c3 -14 1 -28 -3 -31 -5 -3 -9 9 -9 25 0 38 6 40 12 6z m-3335 -7 c-3 -8 -6
-5 -6 6 -1 11 2 17 5 13 3 -3 4 -12 1 -19z m738 -16 c-2 -2 -15 -5 -29 -6 -27
-3 -30 1 -20 28 5 14 8 14 29 -2 13 -9 22 -18 20 -20z m2389 2 c10 -25 -1 -29
-14 -5 -6 12 -7 21 -1 21 5 0 12 -7 15 -16z m-1664 -10 c0 -8 -4 -12 -10 -9
-5 3 -10 10 -10 16 0 5 5 9 10 9 6 0 10 -7 10 -16z m-1619 -21 c-12 -20 -14
-14 -5 12 4 9 9 14 11 11 3 -2 0 -13 -6 -23z m46 -10 c-3 -10 -5 -4 -5 12 0
17 2 24 5 18 2 -7 2 -21 0 -30z m3300 15 c-3 -8 -6 -5 -6 6 -1 11 2 17 5 13 3
-3 4 -12 1 -19z m46 -5 c-4 -10 -9 -11 -19 -2 -19 15 -18 18 5 16 11 -1 17 -6
14 -14z m-3481 -18 c4 -20 2 -23 -8 -14 -7 6 -10 17 -7 25 7 20 10 18 15 -11z
m749 2 c-10 -9 -11 -8 -5 6 3 10 9 15 12 12 3 -3 0 -11 -7 -18z m2779 2 c0 -4
-7 -6 -15 -3 -8 4 -15 10 -15 15 0 4 7 6 15 3 8 -4 15 -10 15 -15z m-3128 -11
c-7 -7 -12 -8 -12 -2 0 14 12 26 19 19 2 -3 -1 -11 -7 -17z m275 16 c-3 -3
-12 -4 -19 -1 -8 3 -5 6 6 6 11 1 17 -2 13 -5z m2708 -10 c15 -21 7 -74 -11
-74 -10 0 -13 7 -8 24 3 13 1 27 -5 30 -10 6 -5 36 6 36 3 0 11 -7 18 -16z
m208 -53 c-6 -8 -20 13 -28 39 -6 23 -5 22 13 -5 11 -16 18 -32 15 -34z
m-3483 23 c0 -22 -2 -24 -14 -14 -8 6 -12 18 -9 26 9 23 23 16 23 -12z m3376
-16 c-1 -27 -5 -38 -15 -36 -8 2 -16 9 -19 17 -3 8 0 11 6 7 15 -9 26 14 13
27 -15 15 -14 24 3 24 9 0 13 -12 12 -39z m-3306 23 c-1 -14 -26 -36 -42 -37
-25 -2 -23 17 2 23 11 3 18 9 15 12 -2 4 2 8 10 8 8 0 15 -3 15 -6z m3243 -8
c-10 -4 -9 -56 2 -73 3 -5 1 -11 -5 -15 -5 -3 -11 -3 -11 2 -11 81 -8 109 13
97 8 -5 8 -9 1 -11z m89 -15 c-8 -8 -9 -4 -5 13 4 13 8 18 11 10 2 -7 -1 -18
-6 -23z m-3093 -70 c0 -20 -3 -40 -9 -43 -6 -4 -10 6 -10 22 0 16 -6 35 -12
42 -11 11 -10 12 1 6 11 -6 13 -2 8 22 -3 17 -3 34 1 38 8 8 19 -36 21 -87z
m-172 60 c-3 -8 -6 -5 -6 6 -1 11 2 17 5 13 3 -3 4 -12 1 -19z m-327 -33 c0
-25 -4 -45 -8 -45 -9 0 -12 35 -6 68 7 36 14 25 14 -23z m160 25 c0 -5 -4 -10
-10 -10 -5 0 -10 5 -10 10 0 6 5 10 10 10 6 0 10 -4 10 -10z m150 -21 c0 -11
-4 -17 -10 -14 -5 3 -10 13 -10 21 0 8 5 14 10 14 6 0 10 -9 10 -21z m-62 -25
c-4 -3 -12 5 -18 18 -12 22 -12 22 6 6 10 -10 15 -20 12 -24z m-78 1 c0 -8 -4
-17 -10 -20 -6 -4 -10 5 -10 20 0 15 4 24 10 20 6 -3 10 -12 10 -20z m3297 5
c-3 -11 -2 -18 3 -15 4 2 8 -7 8 -21 0 -33 19 -55 31 -35 7 11 10 9 16 -8 3
-11 3 -26 -1 -33 -5 -8 -2 -9 12 -4 15 6 17 5 7 -5 -15 -15 -17 -49 -4 -49 5
0 12 6 14 13 4 7 6 8 6 1 1 -6 -5 -17 -13 -23 -18 -15 -35 5 -38 50 -2 23 -11
40 -28 51 -13 10 -27 25 -31 34 -8 23 1 64 13 64 6 0 8 -9 5 -20z m139 4 c-3
-9 -6 -21 -6 -27 0 -8 -3 -8 -10 -1 -12 12 -3 44 12 44 6 0 7 -7 4 -16z
m-3316 -15 c0 -5 -4 -9 -10 -9 -5 0 -10 7 -10 16 0 8 5 12 10 9 6 -3 10 -10
10 -16z m3378 -9 c0 -16 -3 -30 -7 -30 -5 0 -8 47 -2 58 4 9 8 -2 9 -28z
m-115 -28 c3 -23 1 -44 -4 -48 -5 -3 -9 -2 -10 3 0 4 -3 21 -5 37 -5 28 2 63
11 55 2 -2 6 -23 8 -47z m-3209 23 c16 -16 12 -45 -7 -45 -6 0 -8 -3 -4 -6 9
-9 -21 -36 -33 -29 -6 4 -2 15 10 27 15 17 17 24 8 30 -10 6 -10 8 0 8 6 0 12
5 12 11 0 5 -4 7 -10 4 -5 -3 -10 -1 -10 4 0 16 16 13 34 -4z m-73 -63 c-7
-13 -7 -22 1 -30 9 -9 9 -12 1 -12 -6 0 -9 -8 -6 -19 3 -10 0 -22 -7 -26 -15
-9 -17 -7 -24 35 -3 19 -3 29 0 23 12 -26 23 -12 17 22 -4 23 -2 35 6 35 6 0
12 8 12 18 1 12 3 10 6 -5 2 -12 0 -31 -6 -41z m-66 38 c3 -5 1 -10 -4 -10 -6
0 -11 5 -11 10 0 6 2 10 4 10 3 0 8 -4 11 -10z m308 -22 c-5 -26 -23 -40 -23
-18 0 10 23 51 26 47 1 -1 0 -14 -3 -29z m-334 -10 c-1 -31 -1 -31 -8 -8 -5
14 -6 28 -4 33 9 15 13 6 12 -25z m3515 -5 c7 -18 -4 -64 -14 -58 -4 2 -5 16
-2 30 2 14 -1 32 -8 40 -11 13 -10 14 3 9 8 -3 18 -12 21 -21z m-3454 -3 c0
-5 -5 -10 -11 -10 -5 0 -7 5 -4 10 3 6 8 10 11 10 2 0 4 -4 4 -10z m3411 -9
c-7 -5 -10 -14 -7 -20 4 -6 3 -11 -3 -11 -5 0 -13 5 -17 11 -7 11 12 29 31 29
6 0 4 -4 -4 -9z m-3519 -36 c-6 -34 -12 -32 -12 6 0 16 4 28 9 25 4 -3 6 -17
3 -31z m200 13 c-7 -7 -12 -8 -12 -2 0 14 12 26 19 19 2 -3 -1 -11 -7 -17z
m3251 1 c4 -16 3 -18 -9 -8 -16 13 -19 29 -5 29 5 0 11 -9 14 -21z m-3263 -21
c7 -18 9 -19 9 -5 1 9 8 17 16 17 13 0 13 -3 3 -20 -7 -11 -16 -20 -20 -20 -5
0 -8 -7 -8 -16 0 -8 -4 -12 -10 -9 -5 3 -10 1 -10 -4 0 -6 -7 -11 -15 -11 -17
0 -20 16 -4 25 6 4 8 14 5 22 -6 14 9 43 21 43 2 0 8 -10 13 -22z m3321 -38
c3 -34 -11 -110 -21 -110 -14 0 -19 27 -7 39 15 15 20 91 6 91 -5 0 -7 5 -3
11 9 15 22 -1 25 -31z m-3581 -6 c0 -8 -4 -12 -10 -9 -5 3 -10 10 -10 16 0 5
5 9 10 9 6 0 10 -7 10 -16z m510 9 c0 -14 -19 -38 -25 -32 -8 8 5 39 16 39 5
0 9 -3 9 -7z m3014 -28 c-4 -17 -10 -23 -16 -17 -6 6 -6 18 2 32 15 28 23 20
14 -15z m-3362 -16 c3 -18 1 -28 -6 -26 -6 2 -11 11 -11 20 0 8 -4 19 -8 23
-12 12 -8 24 7 18 8 -3 16 -19 18 -35z m118 21 c-8 -5 -9 -10 -2 -14 11 -7 9
-122 -1 -133 -4 -3 -2 -15 4 -26 8 -14 8 -18 0 -13 -6 4 -11 2 -11 -3 0 -6 5
-11 11 -11 5 0 7 -5 3 -12 -4 -7 -7 -30 -6 -53 l2 -40 -20 48 c-10 27 -16 55
-13 63 3 8 0 21 -7 29 -6 8 -10 20 -7 27 2 7 0 23 -4 36 -6 14 -5 22 2 22 8 0
8 4 0 13 -6 8 -8 16 -5 20 3 3 -3 12 -15 19 -12 7 -21 19 -21 28 0 10 5 7 16
-8 8 -12 20 -20 25 -17 8 6 13 -9 10 -28 -1 -5 4 -7 11 -5 7 3 13 16 14 29 1
43 4 50 15 43 8 -5 8 -9 -1 -14z m3195 -22 c-3 -12 0 -27 6 -35 9 -10 8 -13
-1 -13 -9 0 -11 -10 -6 -30 4 -20 2 -29 -5 -25 -6 4 -7 -3 -3 -22 7 -26 6 -27
-9 -11 -19 19 -22 44 -6 53 6 4 8 13 5 20 -3 8 0 15 6 17 8 3 8 10 -1 25 -15
29 -14 43 3 43 10 0 13 -8 11 -22z m-3265 -41 c0 -18 -2 -19 -10 -7 -13 20
-13 43 0 35 6 -3 10 -16 10 -28z m-203 -9 c-3 -8 -6 -5 -6 6 -1 11 2 17 5 13
3 -3 4 -12 1 -19z m83 2 c0 -5 -2 -10 -4 -10 -3 0 -8 5 -11 10 -3 6 -1 10 4
10 6 0 11 -4 11 -10z m85 0 c3 -5 -1 -10 -10 -10 -9 0 -13 5 -10 10 3 6 8 10
10 10 2 0 7 -4 10 -10z m3412 -22 c-3 -7 -5 -2 -5 12 0 14 2 19 5 13 2 -7 2
-19 0 -25z m-3540 -10 c-3 -7 -5 -2 -5 12 0 14 2 19 5 13 2 -7 2 -19 0 -25z
m3456 17 c-3 -9 -8 -14 -10 -11 -3 3 -2 9 2 15 9 16 15 13 8 -4z m23 -24 c-14
-15 -15 -24 -7 -40 8 -13 8 -22 1 -26 -6 -4 -9 -9 -6 -13 2 -4 0 -16 -5 -27
-5 -13 -7 4 -5 44 2 40 9 67 17 72 22 14 23 11 5 -10z m-3306 -1 c0 -5 -5 -10
-11 -10 -5 0 -7 5 -4 10 3 6 8 10 11 10 2 0 4 -4 4 -10z m321 -50 c-4 -12 -6
-12 -9 3 -2 9 -8 17 -13 17 -5 0 -9 7 -9 15 0 12 3 12 18 -2 10 -10 16 -25 13
-33z m-441 20 c5 8 10 10 10 4 0 -6 -7 -17 -15 -24 -8 -7 -15 -10 -15 -7 0 3
-3 14 -6 24 -5 15 -4 16 5 3 10 -13 12 -13 21 0z m83 -7 c-3 -8 0 -11 8 -8 11
4 14 -7 14 -45 0 -27 -3 -50 -7 -50 -5 0 -8 7 -8 16 0 8 -4 13 -8 10 -5 -3 -7
8 -4 23 2 16 -2 34 -12 43 -16 17 -14 25 8 25 8 0 12 -6 9 -14z m3417 2 c0 -8
-2 -15 -4 -15 -2 0 -6 7 -10 15 -3 8 -1 15 4 15 6 0 10 -7 10 -15z m-3291 -19
c7 -8 8 -17 3 -20 -6 -3 -12 3 -15 14 -6 24 -4 25 12 6z m3141 -6 c0 -5 -2
-10 -4 -10 -3 0 -8 5 -11 10 -3 6 -1 10 4 10 6 0 11 -4 11 -10z m-2906 -23 c4
4 4 0 0 -10 -3 -9 -10 -17 -16 -17 -5 0 -6 5 -3 10 3 6 -1 10 -10 10 -9 0 -13
5 -10 10 5 8 11 8 19 1 7 -6 16 -8 20 -4z m3059 -6 c-6 -3 -13 -13 -16 -21 -4
-11 -6 -9 -6 6 -1 24 8 36 21 27 7 -3 7 -8 1 -12z m-115 -18 c-4 -37 -25 -40
-25 -3 0 19 5 30 14 30 10 0 13 -9 11 -27z m-3173 7 c3 -5 1 -10 -4 -10 -6 0
-11 5 -11 10 0 6 2 10 4 10 3 0 8 -4 11 -10z m-425 -10 c0 -5 -4 -10 -10 -10
-5 0 -10 5 -10 10 0 6 5 10 10 10 6 0 10 -4 10 -10z m675 0 c3 -5 1 -10 -4
-10 -6 0 -11 5 -11 10 0 6 2 10 4 10 3 0 8 -4 11 -10z m-15 -25 c11 -13 10
-14 -4 -9 -9 3 -16 10 -16 15 0 13 6 11 20 -6z m2996 -43 c-12 -11 -17 7 -9
34 l8 29 3 -28 c2 -16 1 -31 -2 -35z m-3496 27 c0 -11 -4 -17 -10 -14 -5 3
-10 13 -10 21 0 8 5 14 10 14 6 0 10 -9 10 -21z m195 1 c3 -5 1 -10 -4 -10 -6
0 -11 5 -11 10 0 6 2 10 4 10 3 0 8 -4 11 -10z m3332 -12 c-3 -8 -6 -5 -6 6
-1 11 2 17 5 13 3 -3 4 -12 1 -19z m-207 3 c0 -5 -7 -14 -15 -21 -16 -14 -18
-10 -9 14 6 17 24 22 24 7z m128 -22 c-3 -8 -7 -3 -11 10 -4 17 -3 21 5 13 5
-5 8 -16 6 -23z m-3318 11 c0 -5 -4 -10 -10 -10 -5 0 -10 5 -10 10 0 6 5 10
10 10 6 0 10 -4 10 -10z m150 -22 c0 -5 -7 -3 -15 6 -8 8 -15 18 -15 22 0 3 7
1 15 -6 8 -7 15 -17 15 -22z m-119 5 c0 -11 3 -13 6 -5 7 19 20 14 26 -9 7
-24 -1 -49 -15 -49 -5 0 -7 4 -4 9 3 5 -3 20 -14 34 -22 28 -25 37 -10 37 6 0
10 -8 11 -17z m3268 -28 c0 -5 -6 -1 -14 9 -8 10 -11 24 -8 29 6 10 21 -16 22
-38z m71 9 c0 -8 -4 -12 -10 -9 -5 3 -10 10 -10 16 0 5 5 9 10 9 6 0 10 -7 10
-16z m-3450 -3 c0 -6 -4 -13 -10 -16 -5 -3 -10 1 -10 9 0 9 5 16 10 16 6 0 10
-4 10 -9z m460 -1 c0 -5 -2 -10 -4 -10 -3 0 -8 5 -11 10 -3 6 -1 10 4 10 6 0
11 -4 11 -10z m-390 -36 c0 -3 -7 -1 -15 6 -8 7 -15 17 -15 22 0 5 7 3 15 -6
8 -8 15 -18 15 -22z m-210 -6 c0 -19 -2 -20 -10 -8 -13 19 -13 30 0 30 6 0 10
-10 10 -22z m3480 0 c0 -19 -2 -20 -10 -8 -13 19 -13 30 0 30 6 0 10 -10 10
-22z m119 -15 c8 -15 8 -23 1 -23 -5 0 -10 8 -10 18 0 13 -2 14 -9 3 -7 -10
-10 -10 -16 -1 -6 9 14 36 21 27 1 -1 7 -12 13 -24z m-164 -21 c0 -42 -18 -37
-22 6 -3 24 0 33 9 30 7 -3 13 -19 13 -36z m-3255 18 c0 -5 -2 -10 -4 -10 -3
0 -8 5 -11 10 -3 6 -1 10 4 10 6 0 11 -4 11 -10z m490 -23 c0 -5 -4 -5 -10 -2
-5 3 -10 14 -10 23 0 15 2 15 10 2 5 -8 10 -19 10 -23z m-383 1 c-3 -8 -6 -5
-6 6 -1 11 2 17 5 13 3 -3 4 -12 1 -19z m78 12 c3 -5 1 -10 -4 -10 -6 0 -11 5
-11 10 0 6 2 10 4 10 3 0 8 -4 11 -10z m3035 -12 c0 -19 -2 -20 -10 -8 -13 19
-13 30 0 30 6 0 10 -10 10 -22z m-21 -33 c1 -5 -6 -2 -15 7 -10 9 -13 21 -8
29 5 9 9 8 15 -7 4 -10 8 -23 8 -29z m283 23 c-7 -7 -12 -8 -12 -2 0 6 3 14 7
17 3 4 9 5 12 2 2 -3 -1 -11 -7 -17z m-3472 -24 c0 -7 11 -24 25 -38 14 -14
25 -30 25 -36 0 -7 -6 -5 -15 4 -8 8 -15 20 -15 26 0 6 -5 8 -10 5 -6 -3 -14
5 -20 19 -5 14 -14 26 -19 26 -6 0 -8 7 -5 15 5 12 10 13 20 4 8 -6 14 -17 14
-25z m450 24 c0 -7 -5 -20 -10 -28 -8 -12 -10 -9 -10 13 0 15 5 27 10 27 6 0
10 -6 10 -12z m2925 2 c3 -5 1 -10 -4 -10 -6 0 -11 5 -11 10 0 6 2 10 4 10 3
0 8 -4 11 -10z m-3224 -23 c-10 -9 -11 -8 -5 6 3 10 9 15 12 12 3 -3 0 -11 -7
-18z m3171 -9 c-7 -7 -12 -8 -12 -2 0 6 3 14 7 17 3 4 9 5 12 2 2 -3 -1 -11
-7 -17z m-3131 -5 c13 -16 12 -17 -3 -4 -17 13 -22 21 -14 21 2 0 10 -8 17
-17z m3232 2 c-3 -9 -8 -14 -10 -11 -3 3 -2 9 2 15 9 16 15 13 8 -4z m57 11
c0 -3 -4 -8 -10 -11 -5 -3 -10 -1 -10 4 0 6 5 11 10 11 6 0 10 -2 10 -4z
m-160 -64 c0 -6 -8 -9 -17 -8 -17 3 -19 8 -14 37 1 12 31 -15 31 -29z m-3233
11 c4 -9 1 -19 -5 -21 -7 -2 -9 -9 -5 -15 3 -7 2 -9 -2 -4 -11 9 -13 57 -3 57
5 0 12 -8 15 -17z m3140 -12 c-4 -19 -2 -31 6 -34 6 -2 1 -6 -11 -9 -15 -4
-22 -2 -19 5 2 7 0 20 -5 31 -7 13 -7 16 1 12 6 -4 11 0 11 8 0 9 5 16 11 16
7 0 9 -11 6 -29z m22 -65 c-9 -8 -10 -7 -5 7 3 10 7 35 8 55 1 35 2 35 5 -7 3
-26 -1 -48 -8 -55z m-3302 62 c-3 -8 -6 -5 -6 6 -1 11 2 17 5 13 3 -3 4 -12 1
-19z m203 6 c0 -8 -4 -12 -10 -9 -5 3 -10 10 -10 16 0 5 5 9 10 9 6 0 10 -7
10 -16z m295 -1 c-1 -10 1 -22 5 -28 4 -5 11 -21 14 -35 4 -14 4 -20 -1 -13
-6 8 -14 9 -23 3 -8 -6 -10 -10 -4 -10 6 0 11 -7 11 -15 0 -19 -11 -19 -27 0
-10 12 -10 21 0 44 6 17 9 35 5 40 -7 12 2 31 15 31 4 0 7 -8 5 -17z m1410 7
c3 -5 1 -10 -4 -10 -6 0 -11 5 -11 10 0 6 2 10 4 10 3 0 8 -4 11 -10z m1330
-39 c5 -15 3 -21 -3 -17 -13 8 -42 -3 -42 -16 0 -5 5 -6 11 -2 7 4 10 2 8 -5
-7 -19 -24 -14 -27 9 -2 12 2 20 11 20 18 0 28 24 21 48 -5 14 -4 14 4 2 5 -8
13 -26 17 -39z m-3295 23 c0 -8 -5 -12 -10 -9 -6 4 -8 11 -5 16 9 14 15 11 15
-7z m3507 -36 c-3 -7 -5 -2 -5 12 0 14 2 19 5 13 2 -7 2 -19 0 -25z m-57 8 c0
-3 -4 -8 -10 -11 -5 -3 -10 -1 -10 4 0 6 5 11 10 11 6 0 10 -2 10 -4z m-3221
-66 c0 -12 -3 -11 -14 3 -7 11 -11 26 -8 35 6 13 8 13 14 -4 4 -10 8 -26 8
-34z m3343 18 c-7 -7 -12 -8 -12 -2 0 6 3 14 7 17 3 4 9 5 12 2 2 -3 -1 -11
-7 -17z m-143 -33 c0 -5 -4 -3 -9 5 -5 8 -9 22 -9 30 0 16 17 -16 18 -35z m64
25 c-3 -12 -8 -19 -11 -16 -5 6 5 36 12 36 2 0 2 -9 -1 -20z m-3348 0 c3 -5 1
-10 -4 -10 -6 0 -11 5 -11 10 0 6 2 10 4 10 3 0 8 -4 11 -10z m490 -10 c3 -5
1 -10 -4 -10 -6 0 -11 5 -11 10 0 6 2 10 4 10 3 0 8 -4 11 -10z m2655 -6 c0
-8 -5 -12 -10 -9 -6 4 -8 11 -5 16 9 14 15 11 15 -7z m-3080 -9 c11 -13 10
-14 -4 -9 -12 4 -15 2 -11 -9 4 -8 -1 -17 -9 -20 -12 -5 -13 -1 -4 24 12 34
12 34 28 14z m3400 -15 c0 -5 -5 -10 -11 -10 -5 0 -7 5 -4 10 3 6 8 10 11 10
2 0 4 -4 4 -10z m-171 -55 c0 -5 -4 -3 -9 5 -5 8 -9 22 -9 30 0 16 17 -16 18
-35z m-33 20 c-4 -24 -16 -30 -16 -7 0 12 4 22 9 22 5 0 8 -7 7 -15z m184 11
c0 -2 -8 -10 -17 -17 -16 -13 -17 -12 -4 4 13 16 21 21 21 13z m-177 -56 c-3
-12 -8 -19 -11 -16 -5 6 5 36 12 36 2 0 2 -9 -1 -20z m-1783 -5 c-7 -9 -15
-13 -19 -10 -3 3 1 10 9 15 21 14 24 12 10 -5z m1695 -4 c3 -5 1 -12 -5 -16
-5 -3 -10 1 -10 9 0 18 6 21 15 7z m205 -11 c0 -5 -5 -10 -11 -10 -5 0 -7 5
-4 10 3 6 8 10 11 10 2 0 4 -4 4 -10z m-2560 -20 c0 -5 -5 -10 -11 -10 -5 0
-7 5 -4 10 3 6 8 10 11 10 2 0 4 -4 4 -10z m2402 -12 c-7 -7 -12 -8 -12 -2 0
14 12 26 19 19 2 -3 -1 -11 -7 -17z m-1412 2 c0 -5 -2 -10 -4 -10 -3 0 -8 5
-11 10 -3 6 -1 10 4 10 6 0 11 -4 11 -10z m1567 -12 c-3 -8 -6 -5 -6 6 -1 11
2 17 5 13 3 -3 4 -12 1 -19z m-1987 -8 c0 -5 -5 -10 -11 -10 -5 0 -7 5 -4 10
3 6 8 10 11 10 2 0 4 -4 4 -10z m1668 -49 c-15 -5 -19 4 -11 24 6 18 7 18 13
-1 4 -10 3 -21 -2 -23z m-50 -5 c-1 -14 -6 -22 -10 -20 -4 3 -8 0 -8 -6 0 -6
-4 -8 -10 -5 -6 3 -7 -1 -4 -9 3 -9 10 -16 16 -16 5 0 7 -4 3 -10 -3 -5 -12
-7 -20 -3 -8 3 -15 0 -15 -7 0 -6 -4 -9 -9 -5 -5 3 -12 -4 -16 -15 -6 -19 -26
-29 -24 -12 2 22 18 47 30 47 9 0 14 11 14 30 0 22 4 30 17 29 10 -1 16 2 13
6 -4 7 3 13 22 19 2 1 2 -10 1 -23z m22 -40 c0 -3 -4 -8 -10 -11 -5 -3 -10 -1
-10 4 0 6 5 11 10 11 6 0 10 -2 10 -4z m-1046 -22 c3 -8 2 -12 -4 -9 -6 3 -10
10 -10 16 0 14 7 11 14 -7z m896 -58 c0 -3 -4 -8 -10 -11 -5 -3 -10 -1 -10 4
0 6 5 11 10 11 6 0 10 -2 10 -4z m37 -26 c-4 -28 -15 -35 -12 -8 3 27 3 28 10
28 3 0 4 -9 2 -20z m143 5 c-7 -8 -18 -15 -24 -15 -6 0 -2 7 8 15 25 19 32 19
16 0z m-316 -43 c-22 -5 -31 7 -14 18 9 6 17 5 22 -3 4 -7 1 -13 -8 -15z m126
19 c0 -6 -4 -13 -10 -16 -5 -3 -10 1 -10 9 0 9 5 16 10 16 6 0 10 -4 10 -9z
m-30 -16 c0 -8 -4 -15 -10 -15 -5 0 -7 7 -4 15 4 8 8 15 10 15 2 0 4 -7 4 -15z
m210 -4 c0 -12 -21 -28 -53 -40 -24 -9 -27 -9 -19 5 14 25 72 54 72 35z m-310
-15 c0 -2 -7 -9 -15 -16 -13 -11 -14 -10 -9 4 5 14 24 23 24 12z m37 -2 c-3
-3 -12 -4 -19 -1 -8 3 -5 6 6 6 11 1 17 -2 13 -5z m103 -4 c0 -5 -5 -10 -11
-10 -5 0 -7 5 -4 10 3 6 8 10 11 10 2 0 4 -4 4 -10z m-44 -26 c-9 -8 -14 -20
-11 -25 4 -5 1 -9 -4 -9 -15 0 -14 37 2 43 24 10 28 7 13 -9z m-1362 -14 c13
-13 1 -24 -16 -14 -15 10 -16 10 -83 14 l-50 3 40 7 c46 9 95 4 109 -10z
m1446 10 c0 -5 -5 -10 -11 -10 -5 0 -7 5 -4 10 3 6 8 10 11 10 2 0 4 -4 4 -10z
m120 -15 c0 -21 -2 -24 -14 -13 -7 7 -11 19 -9 25 9 22 23 14 23 -12z m-2263
-32 c-3 -10 -5 -2 -5 17 0 19 2 27 5 18 2 -10 2 -26 0 -35z m137 30 c-5 -17
-5 -17 9 0 15 18 73 25 62 7 -3 -5 -17 -10 -31 -10 -13 0 -24 -3 -24 -8 0 -11
-38 -33 -43 -24 -7 11 11 52 22 52 6 0 8 -8 5 -17z m389 10 c-7 -2 -21 -2 -30
0 -10 3 -4 5 12 5 17 0 24 -2 18 -5z m564 1 c-3 -3 -12 -4 -19 -1 -8 3 -5 6 6
6 11 1 17 -2 13 -5z m1006 -1 c-7 -2 -13 -16 -13 -29 0 -13 -4 -24 -10 -24
-12 0 -8 43 5 52 6 4 15 7 20 7 6 0 4 -3 -2 -6z m94 -9 c-3 -3 -12 -4 -19 -1
-8 3 -5 6 6 6 11 1 17 -2 13 -5z m-173 -35 c5 -4 -2 -6 -17 -6 -19 2 -23 5
-15 15 6 7 14 9 17 5 3 -4 10 -11 15 -14z m96 11 c0 -5 -2 -10 -4 -10 -3 0 -8
5 -11 10 -3 6 -1 10 4 10 6 0 11 -4 11 -10z m90 -9 c0 -6 -4 -13 -10 -16 -5
-3 -10 1 -10 9 0 9 5 16 10 16 6 0 10 -4 10 -9z m-120 -25 c0 -3 -4 -8 -10
-11 -5 -3 -10 -1 -10 4 0 6 5 11 10 11 6 0 10 -2 10 -4z m290 -26 c0 -5 -5
-10 -11 -10 -5 0 -7 5 -4 10 3 6 8 10 11 10 2 0 4 -4 4 -10z m-1649 -50 c6 0
7 -5 4 -10 -10 -16 -25 -1 -24 23 1 17 2 18 6 5 2 -10 9 -18 14 -18z m-111
-20 c0 -5 -4 -10 -10 -10 -5 0 -10 5 -10 10 0 6 5 10 10 10 6 0 10 -4 10 -10z
m-490 -230 c0 -5 -4 -10 -10 -10 -5 0 -10 5 -10 10 0 6 5 10 10 10 6 0 10 -4
10 -10z m0 -40 c0 -5 -4 -10 -10 -10 -5 0 -10 5 -10 10 0 6 5 10 10 10 6 0 10
-4 10 -10z m-444 -82 c5 -7 2 -9 -8 -6 -8 4 -31 -2 -49 -13 l-34 -20 30 26
c33 27 50 31 61 13z m484 -2 c0 -8 -51 -13 -56 -5 -3 5 9 9 25 9 17 0 31 -2
31 -4z m69 -30 c-3 -3 -16 -2 -29 1 -22 6 -22 7 -4 14 18 6 43 -5 33 -15z
m-192 -48 c-2 -13 -4 -5 -4 17 -1 22 1 32 4 23 2 -10 2 -28 0 -40z m93 36 c0
-9 -5 -14 -12 -12 -18 6 -21 28 -4 28 9 0 16 -7 16 -16z m120 -2 c0 -13 -12
-22 -22 -16 -10 6 -1 24 13 24 5 0 9 -4 9 -8z m517 -34 c-3 -8 -6 -5 -6 6 -1
11 2 17 5 13 3 -3 4 -12 1 -19z m-577 -12 c0 -3 -4 -8 -10 -11 -5 -3 -10 -1
-10 4 0 6 5 11 10 11 6 0 10 -2 10 -4z m-652 -30 c-7 -8 -15 -12 -17 -11 -5 6
10 25 20 25 5 0 4 -6 -3 -14z m-55 -30 c-3 -16 4 -34 25 -57 25 -29 37 -33 75
-34 38 0 44 -2 33 -13 -7 -7 -31 -20 -52 -27 -33 -12 -35 -14 -14 -16 l25 -1
-25 -8 c-17 -5 -19 -8 -7 -9 9 -1 17 -5 17 -10 0 -5 -8 -12 -17 -14 -13 -3
-11 -5 6 -6 19 -1 23 -5 19 -26 -3 -14 -2 -25 2 -25 5 0 3 -11 -3 -24 -11 -22
-16 -24 -62 -19 -27 3 -54 10 -60 16 -7 7 -5 7 5 2 9 -5 12 -4 7 1 -5 5 -22 9
-39 10 -17 1 -39 11 -50 21 -19 20 -19 20 14 15 l33 -5 -26 24 c-14 14 -28 33
-33 44 -4 11 -4 17 -1 13 4 -3 15 1 26 10 21 18 26 38 7 26 -7 -4 -8 -3 -4 4
5 8 13 9 25 2 10 -5 21 -7 25 -3 3 3 15 -6 27 -20 23 -30 39 -35 39 -12 0 8 4
15 9 15 5 0 7 9 4 20 -3 11 -9 20 -12 20 -4 0 -18 20 -30 45 -18 37 -20 49
-11 60 17 20 28 10 23 -19z m853 10 c27 -20 13 -29 -19 -13 -15 8 -24 17 -20
20 9 10 17 9 39 -7z m-28 -53 c-10 -2 -18 -11 -18 -19 0 -8 -4 -14 -10 -14
-14 0 -12 27 3 33 6 3 19 5 27 5 10 0 9 -2 -2 -5z m97 -173 c-7 -11 79 -9 90
1 3 4 22 1 43 -6 28 -10 39 -10 44 -2 5 7 8 8 8 2 0 -16 142 -13 158 3 21 19
32 5 19 -23 -11 -23 -27 -34 -27 -17 0 4 -14 8 -30 9 -19 1 -28 -2 -24 -8 4
-7 -14 -9 -50 -7 -31 2 -56 7 -56 13 0 5 -5 3 -10 -5 -8 -12 -11 -13 -19 -1
-5 8 -11 9 -14 3 -4 -5 -59 -9 -124 -9 -86 0 -107 2 -78 8 43 8 39 8 -133 -7
-52 -4 -63 -2 -69 12 -12 31 40 38 76 10 11 -8 13 -8 7 2 -4 7 -1 12 9 12 10
0 13 -5 9 -12 -5 -8 -2 -9 12 -4 10 5 46 10 79 11 33 2 61 9 63 14 2 6 8 11
13 11 6 0 7 -5 4 -10z m434 -74 c11 -13 8 -16 -21 -20 -18 -3 -188 -8 -378
-11 -326 -5 -389 -1 -366 22 4 4 128 10 274 13 147 3 315 6 373 8 85 3 108 1
118 -12z m-1147 -83 c19 -17 19 -17 -1 -25 -15 -5 -21 -16 -21 -37 0 -16 -3
-31 -8 -33 -4 -1 -17 -16 -29 -31 -24 -31 -35 -24 -40 30 -3 23 3 38 18 52 19
18 20 21 6 26 -8 4 -18 13 -21 22 -4 11 -2 13 9 9 8 -3 15 -1 15 5 0 14 50 2
72 -18z m-302 -21 c0 -15 -5 -34 -10 -42 -8 -11 -10 -2 -8 32 3 48 18 57 18
10z m161 -67 c-3 -29 -9 -45 -14 -38 -10 16 -5 76 7 85 14 9 14 10 7 -47z
m1257 13 c3 -16 -6 -18 -80 -18 -46 0 -118 -1 -160 -4 -76 -3 -88 1 -88 33 0
4 73 7 162 7 147 -1 163 -3 166 -18z m472 -63 c0 -12 -6 -27 -13 -33 -10 -9
-13 -2 -14 31 -1 23 -7 43 -13 45 -5 2 -10 8 -10 13 0 6 5 7 10 4 6 -3 10 2
10 12 1 26 30 -44 30 -72z m-1042 47 c3 -17 -2 -22 -17 -22 -12 0 -21 5 -21
11 0 7 -5 8 -12 3 -22 -16 -72 -11 -76 7 -2 12 7 16 39 17 23 1 44 4 46 6 12
11 38 -3 41 -22z m182 16 c0 -7 5 -7 13 1 15 12 27 5 27 -16 0 -8 -12 -13 -30
-13 -20 0 -30 5 -30 15 0 19 -16 20 -23 1 -8 -19 -118 -17 -125 3 -3 10 0 12
11 8 9 -3 19 -2 22 3 8 13 135 11 135 -2z m-1033 -14 c-3 -3 -12 -4 -19 -1 -8
3 -5 6 6 6 11 1 17 -2 13 -5z m-187 -29 c5 -14 20 -29 33 -34 12 -5 29 -16 36
-25 8 -9 29 -16 49 -16 49 0 112 -21 122 -40 6 -12 4 -24 -8 -40 -32 -42 -53
-61 -62 -55 -10 6 -25 -33 -21 -55 2 -8 9 -19 17 -23 8 -4 14 -17 14 -27 0
-18 -3 -18 -26 -7 l-27 12 24 6 c20 6 17 7 -13 8 -32 1 -38 4 -38 24 0 26 -19
62 -20 37 0 -13 -1 -13 -10 0 -5 8 -10 10 -10 3 0 -6 -7 -10 -15 -9 -9 1 -15
6 -15 10 1 4 -13 21 -30 38 -25 24 -29 32 -19 39 11 7 10 9 -3 9 -11 0 -18 8
-18 19 0 11 -4 23 -10 26 -15 9 -12 25 6 25 8 0 13 4 10 9 -9 14 5 42 16 35 7
-4 8 5 3 25 -8 37 2 41 15 6z m2006 -28 c-18 -13 -18 -14 3 -20 17 -4 21 -13
21 -42 0 -52 -24 -86 -81 -114 -40 -20 -48 -28 -43 -44 5 -16 2 -18 -16 -12
-16 5 -20 4 -15 -5 4 -6 16 -10 26 -7 11 3 19 2 19 -3 0 -4 -77 -10 -170 -14
-200 -9 -220 -3 -221 62 0 32 -1 34 -9 15 -6 -16 -18 -23 -36 -23 -19 0 -25
-4 -20 -15 3 -9 0 -15 -9 -15 -11 0 -12 5 -5 25 6 16 6 25 0 25 -6 0 -10 -4
-10 -10 0 -5 -7 -7 -17 -3 -13 5 -15 2 -11 -15 7 -27 -7 -32 -93 -32 -50 0
-69 4 -68 13 1 6 1 20 0 30 -1 16 -3 16 -26 1 -14 -9 -36 -14 -49 -12 -30 6
-51 -5 -42 -21 4 -6 12 -9 17 -6 5 4 9 2 9 -3 0 -6 -31 -9 -70 -8 -76 3 -110
21 -110 60 0 20 0 20 -16 -2 -8 -12 -20 -22 -26 -22 -6 0 -6 6 2 15 7 9 10 18
7 22 -4 3 -11 -5 -17 -19 -11 -24 -33 -30 -58 -14 -8 5 -12 0 -12 -13 0 -15 7
-21 25 -22 14 -1 31 -2 38 -3 6 -1 24 1 40 5 15 4 25 4 22 -1 -3 -4 -2 -10 2
-13 5 -2 3 -2 -4 -1 -6 2 -13 -2 -15 -7 -2 -7 -92 -14 -228 -20 -251 -11 -250
-11 -250 58 0 34 13 44 24 18 10 -26 26 -16 26 16 0 26 -3 31 -20 26 -16 -4
-20 0 -20 18 0 17 4 22 18 18 12 -3 22 3 29 19 8 19 12 10 23 -60 l14 -83 58
2 c49 2 58 5 58 21 0 10 -4 18 -10 18 -16 0 -12 27 5 34 8 3 15 12 15 21 0 9
9 15 24 15 14 0 32 10 40 22 13 18 16 19 16 6 0 -12 5 -15 16 -11 13 5 15 2
10 -14 -5 -16 -2 -19 16 -19 14 1 26 9 30 21 5 18 6 18 7 -3 1 -16 5 -21 14
-16 9 6 9 5 0 -7 -7 -8 -8 -20 -4 -28 6 -9 10 -7 14 8 4 16 11 20 36 16 29 -3
61 15 61 35 0 5 9 11 19 15 13 4 18 13 16 25 -2 10 3 24 11 30 7 7 11 16 8 21
-8 14 -62 11 -68 -3 -5 -10 -7 -10 -12 0 -4 8 -29 12 -73 12 -67 0 -93 -10
-104 -40 -4 -11 -7 -9 -12 8 -7 21 -12 22 -121 22 -104 0 -115 -2 -134 -22
-11 -12 -21 -20 -21 -17 -1 2 -3 16 -4 31 l-4 26 102 6 c112 6 369 13 897 22
190 4 346 8 348 9 2 2 44 3 95 4 79 1 89 0 73 -12z m-1318 -89 c0 -30 -1 -31
-9 -10 -5 13 -7 28 -3 33 9 15 11 11 12 -23z m284 -15 c5 -36 3 -52 -6 -42 -8
10 -14 79 -6 79 4 0 10 -17 12 -37z m-42 -15 c-1 -8 -6 -6 -15 6 -20 26 -19
42 0 22 8 -8 15 -21 15 -28z m80 12 c0 -5 -4 -10 -10 -10 -5 0 -10 5 -10 10 0
6 5 10 10 10 6 0 10 -4 10 -10z m-413 -32 c-3 -7 -5 -2 -5 12 0 14 2 19 5 13
2 -7 2 -19 0 -25z m163 22 c0 -5 -10 -10 -22 -10 -19 0 -20 2 -8 10 19 13 30
13 30 0z m-60 -14 c0 -3 -4 -8 -10 -11 -5 -3 -10 -1 -10 4 0 6 5 11 10 11 6 0
10 -2 10 -4z m-64 -86 c7 0 14 5 16 12 3 7 7 6 11 -5 5 -14 1 -17 -22 -17 -27
0 -42 16 -40 43 0 7 5 2 11 -10 6 -13 17 -23 24 -23z m-429 -32 c-3 -8 -6 -5
-6 6 -1 11 2 17 5 13 3 -3 4 -12 1 -19z m1003 7 c0 -7 -30 -13 -34 -7 -3 4 4
9 15 9 10 1 19 0 19 -2z m786 -3 c-2 -4 -19 -9 -36 -10 -19 -2 -29 1 -25 8 3
5 20 10 36 10 17 0 28 -4 25 -8z m-1778 -49 c2 -20 -1 -24 -9 -16 -7 7 -9 19
-6 27 9 23 12 20 15 -11z m1068 2 c-5 -13 10 -15 96 -15 59 0 98 -4 93 -9 -14
-12 -455 -24 -455 -12 0 20 24 23 136 22 63 -1 114 2 113 6 -3 16 1 23 12 23
6 0 9 -7 5 -15z m-1200 -6 c53 -9 221 -81 234 -99 3 -4 19 -10 35 -14 37 -9
161 -81 172 -100 4 -8 17 -15 27 -17 17 -3 20 -14 23 -72 4 -62 2 -69 -23 -92
l-27 -25 -38 22 c-21 13 -39 26 -39 30 -1 4 -15 22 -33 41 -33 34 -55 30 -35
-6 7 -14 7 -18 -2 -12 -6 4 -16 19 -21 33 -8 21 -12 23 -19 12 -8 -13 -10 -12
-10 3 0 9 -4 17 -9 17 -5 0 -12 10 -16 23 -7 20 -8 19 -15 -13 -8 -39 -13 -24
-10 33 1 21 -3 37 -9 37 -6 0 -11 -16 -11 -36 l0 -36 -37 7 c-21 4 -47 14 -58
24 -11 10 -45 23 -75 30 -30 7 -66 17 -80 23 -72 31 -70 28 -70 86 0 48 4 58
30 83 34 33 35 33 116 18z m1921 -26 c-3 -10 -5 -4 -5 12 0 17 2 24 5 18 2 -7
2 -21 0 -30z m-1012 17 c17 -7 14 -9 -13 -9 -20 -1 -31 3 -27 9 7 12 13 12 40
0z m-245 -10 c0 -5 -4 -10 -10 -10 -5 0 -10 5 -10 10 0 6 5 10 10 10 6 0 10
-4 10 -10z m-137 -7 c-7 -2 -21 -2 -30 0 -10 3 -4 5 12 5 17 0 24 -2 18 -5z
m87 3 c0 -11 -19 -15 -25 -6 -3 5 1 10 9 10 9 0 16 -2 16 -4z m-830 -132 c0
-14 -4 -23 -10 -19 -5 3 -10 15 -10 26 0 10 5 19 10 19 6 0 10 -12 10 -26z
m-252 -59 c12 -19 22 -42 22 -50 0 -9 4 -14 9 -11 5 3 14 -1 21 -9 11 -13 10
-14 -6 -8 -17 6 -17 5 -5 -10 12 -16 12 -18 -5 -16 -4 0 -10 -5 -15 -12 -6
-10 -10 -9 -15 6 -8 21 -52 65 -65 65 -10 0 2 43 15 52 7 5 3 8 -9 9 l-20 0
20 9 c29 12 28 13 53 -25z m2152 25 c0 -5 -7 -7 -15 -4 -8 4 -15 8 -15 10 0 2
7 4 15 4 8 0 15 -4 15 -10z m-1105 -30 c-3 -5 -13 -10 -21 -10 -8 0 -14 -8
-15 -17 0 -11 -2 -13 -6 -5 -8 21 5 42 27 42 12 0 18 -4 15 -10z m1038 -44 c6
-15 -1 -26 -15 -26 -4 0 -8 9 -8 20 0 23 15 27 23 6z m-2003 -66 c0 -5 -2 -10
-4 -10 -3 0 -8 5 -11 10 -3 6 -1 10 4 10 6 0 11 -4 11 -10z m228 -8 c9 -5 27
-14 39 -20 13 -7 31 -12 42 -12 11 0 43 -19 73 -43 76 -62 171 -117 202 -117
18 0 26 -5 26 -17 0 -13 -3 -14 -12 -5 -7 7 -34 12 -60 12 -29 0 -65 8 -88 20
-22 11 -61 23 -87 26 -62 7 -126 39 -163 80 -50 58 -33 105 28 76z m273 -25
c3 -5 9 -8 13 -8 45 6 71 -2 102 -33 19 -19 34 -44 34 -56 0 -20 -4 -22 -31
-16 -37 7 -69 40 -69 69 0 21 0 21 -15 1 -14 -19 -15 -19 -21 4 -5 17 -9 20
-20 11 -17 -14 -49 14 -38 33 5 8 2 9 -11 4 -15 -5 -16 -4 -6 8 10 12 17 13
34 3 12 -7 25 -16 28 -20z m-675 -153 c-4 -9 -9 -15 -11 -12 -3 3 -3 13 1 22
4 9 9 15 11 12 3 -3 3 -13 -1 -22z m875 -10 c8 -22 6 -30 -10 -45 -19 -18 -20
-18 -45 2 -33 26 -33 45 2 57 40 15 42 15 53 -14z m-906 -24 c3 -5 1 -10 -4
-10 -6 0 -11 5 -11 10 0 6 2 10 4 10 3 0 8 -4 11 -10z m2485 0 c0 -5 -4 -10
-10 -10 -5 0 -10 5 -10 10 0 6 5 10 10 10 6 0 10 -4 10 -10z m-1467 -30 c-3
-11 -9 -20 -14 -20 -10 0 -12 33 -3 43 12 12 22 -3 17 -23z m-1056 -12 c-3 -8
-6 -5 -6 6 -1 11 2 17 5 13 3 -3 4 -12 1 -19z m33 14 c0 -5 -7 -17 -16 -28
-14 -17 -15 -17 -10 -1 3 10 6 23 6 28 0 5 5 9 10 9 6 0 10 -4 10 -8z m-54
-11 c-4 -5 0 -11 6 -14 10 -4 11 -7 1 -18 -11 -11 -13 -10 -13 4 0 9 -5 17
-11 17 -5 0 -7 5 -4 10 3 6 11 10 16 10 6 0 8 -4 5 -9z m-16 -41 c0 -5 -2 -10
-4 -10 -3 0 -8 5 -11 10 -3 6 -1 10 4 10 6 0 11 -4 11 -10z m1092 -5 c0 -5 -5
-11 -11 -13 -6 -2 -11 4 -11 13 0 9 5 15 11 13 6 -2 11 -8 11 -13z m-1022 -5
c0 -5 -5 -10 -11 -10 -5 0 -7 5 -4 10 3 6 8 10 11 10 2 0 4 -4 4 -10z m-35
-10 c3 -5 -1 -10 -9 -10 -9 0 -16 5 -16 10 0 6 4 10 9 10 6 0 13 -4 16 -10z"/>
<path d="M2847 4143 c-12 -11 -8 -23 8 -23 8 0 15 7 15 15 0 16 -12 20 -23 8z"/>
<path d="M2830 4090 c0 -5 5 -10 11 -10 5 0 7 5 4 10 -3 6 -8 10 -11 10 -2 0
-4 -4 -4 -10z"/>
<path d="M2950 3431 c0 -6 4 -13 10 -16 6 -3 7 1 4 9 -7 18 -14 21 -14 7z"/>
<path d="M2940 2970 c0 -5 5 -10 11 -10 5 0 7 5 4 10 -3 6 -8 10 -11 10 -2 0
-4 -4 -4 -10z"/>
<path d="M2070 2950 c-9 -6 -10 -10 -3 -10 6 0 15 5 18 10 8 12 4 12 -15 0z"/>
<path d="M2877 2933 c-4 -3 -7 -11 -7 -17 0 -6 5 -5 12 2 6 6 9 14 7 17 -3 3
-9 2 -12 -2z"/>
<path d="M1914 2879 c-7 -12 14 -39 32 -39 8 0 11 -6 7 -17 -5 -12 -3 -14 7
-8 9 5 11 4 6 -4 -4 -6 -12 -8 -18 -5 -8 5 -9 -4 -5 -27 5 -26 4 -30 -4 -19
-8 12 -9 8 -4 -14 3 -15 12 -35 20 -42 7 -8 15 -19 18 -26 3 -10 11 -8 28 7
16 14 20 15 10 3 -7 -9 -9 -23 -5 -29 5 -9 10 -8 19 4 6 8 20 15 31 14 13 -1
18 3 16 16 -2 10 3 17 14 17 10 0 14 3 11 7 -4 3 -1 13 5 22 8 10 4 9 -10 -3
l-22 -19 11 31 c11 33 24 41 32 20 4 -10 6 -9 6 1 1 10 7 7 20 -7 10 -12 21
-19 25 -15 10 10 106 12 112 2 3 -5 10 -7 15 -3 6 3 30 7 54 9 24 1 52 8 61
16 13 11 18 11 21 2 3 -7 9 -13 14 -13 4 0 6 7 3 15 -4 8 -1 15 6 15 8 0 11
-9 8 -25 -3 -14 -2 -25 2 -25 12 0 20 28 13 46 -5 13 -2 15 15 9 13 -4 22 -2
22 4 0 6 17 19 38 30 45 24 31 27 -29 5 -30 -10 -76 -15 -144 -14 -55 1 -114
-2 -132 -5 -31 -7 -103 10 -113 26 -3 5 -24 11 -45 15 -22 3 -42 8 -44 10 -2
2 -11 -1 -18 -8 -11 -9 -16 -9 -23 1 -4 8 -16 11 -29 6 -11 -3 -21 -2 -21 3 0
14 -28 23 -36 11z m136 -73 c0 -2 -8 -10 -17 -17 -16 -13 -17 -12 -4 4 13 16
21 21 21 13z m30 -25 c-5 -11 -15 -23 -22 -27 -7 -5 -8 -2 -3 7 21 37 44 55
25 20z"/>
<path d="M2854 2847 c-1 -30 -1 -30 9 -9 6 14 7 26 1 32 -5 5 -9 -4 -10 -23z"/>
<path d="M2811 2784 c0 -11 3 -14 6 -6 3 7 2 16 -1 19 -3 4 -6 -2 -5 -13z"/>
<path d="M1941 2674 c0 -11 3 -14 6 -6 3 7 2 16 -1 19 -3 4 -6 -2 -5 -13z"/>
<path d="M2070 2660 c0 -5 6 -10 14 -10 8 0 16 -4 18 -10 2 -5 30 -11 63 -13
33 -2 65 -5 70 -7 6 -1 28 -1 50 0 22 1 32 4 23 7 -10 2 -18 9 -18 15 0 7 -21
9 -60 5 -33 -3 -63 -1 -66 4 -3 5 -11 9 -17 9 -7 0 -6 -4 3 -10 12 -8 11 -10
-6 -10 -11 0 -29 7 -40 15 -23 17 -34 19 -34 5z"/>
<path d="M4290 3836 c0 -8 5 -18 10 -21 6 -3 10 1 10 9 0 8 -4 18 -10 21 -5 3
-10 -1 -10 -9z"/>
<path d="M4307 3783 c-4 -3 -7 -11 -7 -17 0 -6 5 -5 12 2 6 6 9 14 7 17 -3 3
-9 2 -12 -2z"/>
<path d="M1231 3151 c-8 -5 -10 -14 -6 -21 6 -9 10 -8 17 4 12 21 7 28 -11 17z"/>
<path d="M1230 3021 c0 -5 5 -13 10 -16 6 -3 10 -2 10 4 0 5 -4 13 -10 16 -5
3 -10 2 -10 -4z"/>
<path d="M2854 953 c-38 -5 -63 -30 -69 -69 -2 -16 -2 -23 2 -16 8 20 43 -15
36 -36 -4 -10 -3 -14 2 -10 4 4 12 31 16 59 8 53 18 73 26 52 3 -7 11 -13 19
-13 9 0 12 -4 9 -10 -11 -17 3 -11 29 13 38 35 23 42 -70 30z m-34 -38 c0 -8
-4 -15 -10 -15 -5 0 -7 7 -4 15 4 8 8 15 10 15 2 0 4 -7 4 -15z"/>
<path d="M2565 943 c-64 -6 -90 -66 -39 -90 23 -10 26 -9 35 13 5 14 9 34 9
45 0 21 15 25 26 7 4 -7 3 -8 -4 -4 -7 4 -12 1 -12 -8 0 -10 6 -13 15 -10 8 4
15 1 15 -6 0 -6 5 -8 10 -5 6 3 10 0 10 -7 0 -9 3 -9 10 2 8 12 10 10 10 -10
0 -14 -5 -32 -10 -40 -8 -12 -10 -11 -10 8 0 13 -6 22 -15 22 -8 0 -15 -9 -15
-21 0 -16 -4 -19 -20 -14 -11 3 -20 3 -20 -2 0 -17 49 -13 53 5 4 15 5 15 6 1
0 -9 8 -19 15 -22 11 -5 17 6 22 41 14 87 12 97 -21 98 -17 1 -48 -1 -70 -3z
m-18 -75 c-3 -7 -5 -2 -5 12 0 14 2 19 5 13 2 -7 2 -19 0 -25z"/>
<path d="M2681 895 c1 -27 3 -42 6 -32 5 20 19 22 30 5 11 -18 22 42 11 64 -4
9 -17 16 -28 15 -17 -1 -20 -8 -19 -52z"/>
<path d="M2313 885 c1 -38 -2 -56 -11 -60 -10 -4 -13 7 -11 48 3 52 3 52 -26
52 -23 0 -31 -5 -33 -23 -2 -13 3 -25 12 -28 9 -3 16 -14 16 -23 0 -19 35 -61
51 -61 6 0 7 5 4 10 -3 6 1 10 9 10 9 0 16 -4 16 -9 0 -4 11 -6 25 -3 14 2 25
8 25 13 0 5 -11 11 -25 15 -36 9 -32 52 6 66 9 4 19 16 22 27 5 19 1 21 -39
21 l-43 0 2 -55z"/>
<path d="M2409 933 c0 -5 -3 -20 -5 -35 -3 -20 0 -28 10 -28 9 0 12 7 9 20 -3
11 0 20 6 20 5 0 8 -7 5 -15 -4 -8 -1 -15 5 -15 6 0 11 5 11 10 0 6 7 10 15
10 8 0 15 6 15 14 0 22 -18 29 -23 9 -4 -17 -5 -17 -6 0 -1 16 -40 26 -42 10z"/>
<path d="M2190 879 c0 -5 5 -7 10 -4 6 3 10 8 10 11 0 2 -4 4 -10 4 -5 0 -10
-5 -10 -11z"/>
<path d="M2471 874 c0 -11 3 -14 6 -6 3 7 2 16 -1 19 -3 4 -6 -2 -5 -13z"/>
<path d="M2882 867 c-7 -8 -9 -17 -5 -21 4 -4 1 -11 -6 -15 -8 -5 -9 -11 -3
-15 6 -3 15 8 21 26 12 35 9 45 -7 25z"/>
<path d="M2223 853 c9 -9 20 -13 24 -9 4 4 1 11 -7 16 -25 16 -35 11 -17 -7z"/>
<path d="M2410 849 c0 -5 5 -7 10 -4 6 3 10 8 10 11 0 2 -4 4 -10 4 -5 0 -10
-5 -10 -11z"/>
<path d="M2915 850 c-3 -5 -1 -10 4 -10 6 0 11 5 11 10 0 6 -2 10 -4 10 -3 0
-8 -4 -11 -10z"/>
<path d="M2665 820 c-3 -5 -1 -10 4 -10 6 0 11 5 11 10 0 6 -2 10 -4 10 -3 0
-8 -4 -11 -10z"/>
<path d="M1910 811 c-8 -6 -18 -7 -22 -5 -4 3 -8 -3 -9 -13 0 -10 -2 -31 -4
-48 -3 -21 -1 -25 5 -15 5 8 15 15 22 15 7 0 15 17 19 38 3 20 5 37 5 37 -1 0
-8 -4 -16 -9z"/>
<path d="M2454 808 c-14 -21 -13 -38 1 -38 7 0 16 8 19 17 8 21 -9 40 -20 21z"/>
<path d="M2721 811 c-12 -8 -12 -12 -2 -25 10 -12 16 -13 26 -3 7 6 10 18 8
24 -6 15 -13 16 -32 4z m19 -11 c0 -5 -5 -10 -11 -10 -5 0 -7 5 -4 10 3 6 8
10 11 10 2 0 4 -4 4 -10z"/>
<path d="M2173 793 c-18 -7 -16 -30 3 -37 23 -9 24 -8 24 19 0 25 -4 28 -27
18z"/>
<path d="M2770 791 c0 -17 18 -21 24 -6 3 9 0 15 -9 15 -8 0 -15 -4 -15 -9z"/>
<path d="M2214 774 c3 -9 6 -18 6 -20 0 -3 5 -2 10 1 16 10 12 35 -6 35 -11 0
-14 -5 -10 -16z"/>
<path d="M2492 779 c2 -6 8 -10 13 -10 5 0 11 4 13 10 2 6 -4 11 -13 11 -9 0
-15 -5 -13 -11z"/>
<path d="M1940 765 c0 -17 10 -24 25 -18 8 2 12 10 9 17 -6 16 -34 17 -34 1z"/>
<path d="M2935 730 c4 -6 11 -8 16 -5 14 9 11 15 -7 15 -8 0 -12 -5 -9 -10z"/>
<path d="M3690 4363 c0 -5 5 -15 10 -23 8 -12 10 -11 10 8 0 12 -4 22 -10 22
-5 0 -10 -3 -10 -7z"/>
<path d="M3920 4335 c0 -8 4 -15 10 -15 5 0 7 7 4 15 -4 8 -8 15 -10 15 -2 0
-4 -7 -4 -15z"/>
<path d="M3762 4331 c-10 -6 -8 -13 7 -32 23 -27 27 -19 9 14 -10 21 -10 21 7
7 15 -13 17 -13 14 -1 -6 18 -20 23 -37 12z"/>
<path d="M3873 4269 c8 -32 -1 -43 -20 -24 -22 23 -39 18 -18 -5 10 -11 32
-22 51 -26 33 -6 47 -30 53 -91 0 -7 6 -13 12 -13 8 0 8 5 -1 15 -10 12 -10
15 4 15 9 0 16 8 16 17 0 9 -3 13 -7 10 -9 -10 -42 43 -36 58 7 21 45 5 40
-16 -3 -10 2 -24 9 -30 8 -7 13 -17 11 -23 -3 -6 2 -17 9 -24 19 -17 18 1 -1
37 -8 16 -12 31 -10 33 3 3 0 19 -6 37 -10 29 -12 30 -25 14 -9 -12 -13 -13
-14 -5 0 7 -4 11 -9 8 -5 -3 -12 1 -15 10 -4 9 -9 14 -13 11 -3 -4 -13 -1 -21
6 -13 10 -14 8 -9 -14z m47 -33 c0 -4 -7 -6 -15 -2 -8 3 -15 0 -15 -6 0 -6 -3
-9 -6 -6 -3 4 0 16 6 28 10 18 14 20 21 9 5 -8 9 -18 9 -23z"/>
<path d="M3734 4264 c3 -9 6 -21 6 -26 0 -18 14 1 17 22 2 13 -3 20 -13 20
-11 0 -14 -5 -10 -16z"/>
<path d="M3770 4261 c0 -6 5 -13 10 -16 6 -3 10 1 10 9 0 9 -4 16 -10 16 -5 0
-10 -4 -10 -9z"/>
<path d="M3584 4239 c-4 -7 -3 -9 4 -5 5 3 13 0 15 -6 4 -9 6 -10 6 -1 1 17
-16 25 -25 12z"/>
<path d="M3776 4215 c4 -8 11 -15 16 -15 6 0 5 6 -2 15 -7 8 -14 15 -16 15 -2
0 -1 -7 2 -15z"/>
<path d="M3640 4200 c-11 -7 -8 -10 13 -15 15 -4 36 -19 47 -32 11 -14 20 -20
20 -14 0 12 -21 36 -50 58 -10 7 -21 8 -30 3z"/>
<path d="M3902 4170 c7 -10 14 -18 15 -16 6 6 -9 36 -18 36 -5 0 -4 -9 3 -20z"/>
<path d="M3840 4171 c0 -6 5 -13 10 -16 6 -4 10 -12 9 -18 -3 -26 2 -47 11
-47 5 0 7 8 4 18 -5 15 -4 15 6 -1 6 -10 9 -25 6 -34 -5 -13 -4 -14 9 -3 20
16 19 32 -3 56 -19 19 -22 26 -22 44 0 6 -7 10 -15 10 -8 0 -15 -4 -15 -9z"/>
<path d="M3786 4162 c-3 -5 1 -9 9 -9 8 0 12 4 9 9 -3 4 -7 8 -9 8 -2 0 -6 -4
-9 -8z"/>
<path d="M3746 4145 c4 -8 11 -15 16 -15 6 0 5 6 -2 15 -7 8 -14 15 -16 15 -2
0 -1 -7 2 -15z"/>
<path d="M3516 4125 c4 -8 11 -15 16 -15 6 0 5 6 -2 15 -7 8 -14 15 -16 15 -2
0 -1 -7 2 -15z"/>
<path d="M3986 4105 c4 -8 1 -15 -6 -15 -6 0 -8 -5 -3 -12 4 -7 8 -16 9 -20 1
-5 2 -11 3 -15 1 -5 6 0 11 9 10 15 -2 68 -14 68 -3 0 -3 -7 0 -15z"/>
<path d="M3818 4089 c-3 -9 -2 -22 3 -30 5 -8 6 -23 3 -34 -4 -16 -3 -17 5 -5
5 9 6 31 2 50 -5 24 -9 30 -13 19z"/>
<path d="M3934 4084 c3 -8 6 -24 6 -35 0 -10 3 -18 8 -18 22 4 31 -3 25 -18
-4 -11 -3 -14 6 -9 6 4 18 2 26 -4 27 -22 16 1 -15 32 -16 16 -30 35 -30 43 0
7 -7 16 -16 19 -12 5 -15 2 -10 -10z"/>
<path d="M3884 3998 c0 -27 5 -48 9 -48 5 0 6 4 3 9 -4 5 -1 11 5 13 7 2 6 14
-4 38 l-15 35 2 -47z"/>
<path d="M3592 4005 c0 -16 2 -22 5 -12 2 9 2 23 0 30 -3 6 -5 -1 -5 -18z"/>
<path d="M3840 4010 c0 -5 7 -10 16 -10 8 0 12 5 9 10 -3 6 -10 10 -16 10 -5
0 -9 -4 -9 -10z"/>
<path d="M3936 4007 c3 -10 9 -15 12 -12 3 3 0 11 -7 18 -10 9 -11 8 -5 -6z"/>
<path d="M3969 3968 c-1 -7 -1 -19 0 -25 1 -7 -3 -13 -9 -13 -6 0 -8 -5 -5
-10 4 -6 13 -4 23 7 12 11 13 18 5 20 -7 3 -9 11 -6 19 3 8 2 14 -1 14 -3 0
-7 -6 -7 -12z"/>
<path d="M4115 3970 c-3 -5 -3 -16 2 -22 4 -7 8 -65 8 -129 0 -111 1 -116 28
-148 31 -37 37 -32 7 6 -15 19 -19 40 -19 88 1 35 -2 69 -6 75 -3 5 -1 10 4
10 6 0 11 -4 11 -10 0 -5 5 -10 11 -10 5 0 8 4 5 9 -4 5 0 12 6 14 8 4 7 6 -4
6 -9 1 -20 6 -24 13 -4 7 -3 8 5 4 8 -5 11 2 9 23 -1 16 -6 27 -10 25 -4 -3
-8 6 -8 20 0 27 -15 43 -25 26z"/>
<path d="M4067 3923 c3 -21 13 -47 21 -58 l14 -20 -7 20 c-4 11 -8 35 -9 54
-1 19 -6 36 -13 38 -9 3 -10 -7 -6 -34z"/>
<path d="M3960 3890 c0 -5 5 -10 10 -10 6 0 10 5 10 10 0 6 -4 10 -10 10 -5 0
-10 -4 -10 -10z"/>
<path d="M4170 3886 c0 -2 8 -10 18 -17 15 -13 16 -12 3 4 -13 16 -21 21 -21
13z"/>
<path d="M4041 3875 c1 -19 18 -51 18 -35 0 8 -4 22 -9 30 -5 8 -9 11 -9 5z"/>
<path d="M3950 3861 c0 -5 8 -12 17 -15 15 -6 15 -8 3 -16 -9 -6 -10 -10 -3
-10 20 0 25 19 9 35 -17 17 -26 19 -26 6z"/>
<path d="M4210 3820 c0 -5 5 -10 10 -10 6 0 10 -7 10 -15 0 -8 5 -15 10 -15
13 0 13 6 0 31 -11 20 -30 26 -30 9z"/>
<path d="M4156 3801 c-4 -5 3 -7 14 -4 23 6 26 13 6 13 -8 0 -17 -4 -20 -9z"/>
<path d="M3860 3781 c0 -6 4 -13 10 -16 6 -3 7 1 4 9 -7 18 -14 21 -14 7z"/>
<path d="M4063 3773 c3 -13 1 -26 -4 -29 -5 -3 -9 -10 -9 -15 0 -6 4 -8 9 -5
4 3 7 -6 5 -19 -1 -14 1 -27 5 -30 12 -7 10 87 -1 105 -7 11 -8 10 -5 -7z"/>
<path d="M4165 3742 c2 -24 10 -51 17 -59 11 -14 14 -12 18 18 7 42 1 67 -11
48 -6 -10 -11 -7 -18 11 -8 21 -9 18 -6 -18z"/>
<path d="M3342 3677 c-1 -19 -6 -46 -12 -62 -6 -15 -8 -30 -6 -33 3 -3 9 6 14
19 14 38 23 109 14 109 -5 0 -9 -15 -10 -33z"/>
<path d="M4000 3685 c0 -5 5 -17 10 -25 5 -8 10 -10 10 -5 0 6 -5 17 -10 25
-5 8 -10 11 -10 5z"/>
<path d="M4193 3640 c-3 -11 -9 -20 -13 -20 -5 0 -2 -13 6 -30 9 -16 13 -34
10 -39 -8 -12 14 -61 26 -61 5 0 4 9 -1 19 -8 14 -7 22 3 30 11 9 15 9 19 -1
4 -8 6 -7 6 5 1 11 -6 17 -19 17 -11 0 -20 5 -20 10 0 6 5 10 11 10 8 0 7 6
-2 16 -8 9 -12 27 -11 40 4 29 -8 32 -15 4z"/>
<path d="M4117 3629 c4 -13 8 -18 11 -10 2 7 -1 18 -6 23 -8 8 -9 4 -5 -13z"/>
<path d="M3885 3610 c3 -5 8 -10 11 -10 2 0 4 5 4 10 0 6 -5 10 -11 10 -5 0
-7 -4 -4 -10z"/>
<path d="M4090 3581 c0 -5 5 -13 10 -16 6 -3 10 -2 10 4 0 5 -4 13 -10 16 -5
3 -10 2 -10 -4z"/>
<path d="M3286 3542 l-19 -27 24 22 c12 12 21 24 18 27 -2 2 -13 -8 -23 -22z"/>
<path d="M4147 3540 c-3 -11 -2 -22 2 -24 4 -3 8 6 9 20 2 29 -4 31 -11 4z"/>
<path d="M4100 3541 c0 -6 4 -13 10 -16 6 -3 7 1 4 9 -7 18 -14 21 -14 7z"/>
<path d="M3126 3503 c-6 -14 -5 -15 5 -6 7 7 10 15 7 18 -3 3 -9 -2 -12 -12z"/>
<path d="M4127 3475 c-4 -8 -2 -17 3 -20 6 -4 10 3 10 14 0 25 -6 27 -13 6z"/>
<path d="M4217 3460 c-3 -13 -3 -27 2 -30 4 -3 11 -12 14 -20 3 -9 5 -5 6 10
0 14 -4 34 -8 44 -7 19 -8 18 -14 -4z"/>
<path d="M3276 3405 c-9 -26 -7 -32 5 -12 6 10 9 21 6 23 -2 3 -7 -2 -11 -11z"/>
<path d="M4096 3395 c-9 -26 -7 -32 5 -12 6 10 9 21 6 23 -2 3 -7 -2 -11 -11z"/>
<path d="M1335 3361 c-3 -5 -2 -12 3 -15 5 -3 9 1 9 9 0 17 -3 19 -12 6z"/>
<path d="M4256 3345 c4 -8 1 -15 -5 -15 -6 0 -11 5 -11 12 0 6 -2 9 -5 6 -10
-9 7 -38 18 -31 6 4 8 -2 5 -15 -4 -12 -1 -25 4 -29 7 -4 8 -1 3 7 -6 10 -4
12 9 7 14 -5 15 -3 6 13 -5 10 -10 28 -10 39 0 12 -4 21 -10 21 -5 0 -7 -7 -4
-15z"/>
<path d="M4046 3337 c3 -10 9 -15 12 -12 3 3 0 11 -7 18 -10 9 -11 8 -5 -6z"/>
<path d="M4183 3261 c1 -38 6 -73 10 -77 4 -4 5 13 3 39 -4 34 -1 45 8 41 7
-3 13 2 13 10 0 8 -5 12 -10 9 -6 -4 -8 5 -5 21 4 17 1 26 -8 26 -9 0 -12 -18
-11 -69z"/>
<path d="M4105 3310 c3 -5 8 -10 11 -10 2 0 4 5 4 10 0 6 -5 10 -11 10 -5 0
-7 -4 -4 -10z"/>
<path d="M4107 3276 c-4 -10 -1 -13 8 -9 8 3 12 9 9 14 -7 12 -11 11 -17 -5z"/>
<path d="M4300 3230 c0 -5 5 -10 10 -10 6 0 10 5 10 10 0 6 -4 10 -10 10 -5 0
-10 -4 -10 -10z"/>
<path d="M4227 3204 c-4 -4 -2 -13 5 -21 6 -7 8 -16 5 -20 -4 -3 -2 -14 4 -25
8 -14 7 -24 -3 -36 -12 -16 -11 -16 6 -2 18 14 19 13 14 -6 -3 -11 0 -28 6
-37 10 -12 12 2 10 66 -3 97 -4 99 -14 67 l-7 -25 -10 23 c-5 13 -12 20 -16
16z m37 -60 c3 -8 2 -12 -4 -9 -6 3 -10 10 -10 16 0 14 7 11 14 -7z"/>
<path d="M4175 3155 c-16 -50 -14 -48 -33 -34 -15 12 -16 12 -6 -1 5 -8 9 -44
7 -80 -5 -103 -3 -132 7 -145 5 -7 8 -15 5 -19 -3 -3 0 -2 7 3 8 7 8 14 1 23
-13 15 -5 122 12 161 6 14 4 16 -11 10 -18 -6 -18 -5 -3 13 9 10 19 34 22 52
7 32 0 45 -8 17z"/>
<path d="M1402 3090 c-16 -26 -15 -29 8 -23 11 3 20 14 20 24 0 25 -12 24 -28
-1z"/>
<path d="M3977 3049 c-15 -37 -16 -72 -3 -77 5 -1 10 14 11 34 1 20 8 40 16
45 11 6 11 11 2 20 -9 9 -15 4 -26 -22z"/>
<path d="M4082 3071 c-13 -8 -11 -110 4 -145 4 -11 4 -17 -2 -14 -5 4 -9 -13
-9 -36 0 -33 3 -40 12 -30 13 13 11 163 -2 197 -4 10 -3 17 5 17 6 0 9 -4 5
-9 -3 -5 -1 -12 5 -16 12 -7 13 14 2 32 -4 7 -13 8 -20 4z"/>
<path d="M1393 3020 c0 -17 5 -30 11 -30 7 0 8 -3 1 -8 -6 -4 -10 -44 -10 -89
0 -44 3 -76 7 -70 4 7 5 20 2 30 -3 9 -2 17 3 17 5 0 8 19 8 43 0 23 3 54 7
68 6 19 3 32 -10 47 l-19 21 0 -29z"/>
<path d="M4186 3027 c3 -10 9 -15 12 -12 3 3 0 11 -7 18 -10 9 -11 8 -5 -6z"/>
<path d="M4201 2966 c-7 -8 -10 -24 -6 -36 3 -11 2 -20 -3 -20 -5 0 -9 -16
-10 -36 -1 -20 -9 -45 -18 -55 -9 -10 -13 -23 -9 -29 4 -6 -1 -18 -11 -25 -11
-8 -14 -15 -9 -15 15 0 13 -43 -2 -59 -17 -16 -12 -35 10 -39 11 -2 17 3 17
15 0 14 -2 15 -9 4 -5 -8 -11 -9 -15 -3 -3 5 2 13 11 17 10 3 19 1 21 -4 2 -6
8 -9 12 -6 5 3 7 12 4 19 -3 7 2 19 11 26 8 7 15 22 15 34 0 17 -2 18 -11 6
-8 -11 -9 -7 -4 18 4 18 2 32 -3 32 -6 0 -6 18 0 48 6 26 11 56 12 67 0 11 5
26 10 33 12 19 1 25 -13 8z"/>
<path d="M1456 2953 c3 -13 1 -23 -5 -23 -6 0 -11 5 -11 11 0 5 -5 7 -11 4 -6
-5 -4 -12 8 -20 25 -19 40 -2 25 27 l-12 23 6 -22z"/>
<path d="M4241 2924 c0 -11 3 -14 6 -6 3 7 2 16 -1 19 -3 4 -6 -2 -5 -13z"/>
<path d="M1460 2898 c1 -2 7 -25 14 -53 13 -47 15 -49 24 -25 7 20 6 26 -6 31
-14 5 -13 7 3 17 11 6 17 12 13 13 -5 1 -11 2 -15 3 -5 1 -14 5 -20 9 -7 5
-13 7 -13 5z"/>
<path d="M3907 2823 c-4 -3 -7 -11 -7 -17 0 -6 5 -5 12 2 6 6 9 14 7 17 -3 3
-9 2 -12 -2z"/>
<path d="M4033 2795 c-3 -9 -3 -18 -1 -21 3 -3 8 4 11 16 6 23 -1 27 -10 5z"/>
<path d="M1407 2758 c8 -44 13 -48 13 -10 0 17 -4 34 -10 37 -6 4 -7 -6 -3
-27z"/>
<path d="M1475 2770 c3 -5 10 -10 16 -10 5 0 9 5 9 10 0 6 -7 10 -16 10 -8 0
-12 -4 -9 -10z"/>
<path d="M3960 2760 c0 -5 5 -10 11 -10 5 0 7 5 4 10 -3 6 -8 10 -11 10 -2 0
-4 -4 -4 -10z"/>
<path d="M4035 2738 c-7 -20 -1 -67 8 -61 4 2 7 -3 7 -11 0 -9 -5 -16 -12 -16
-9 0 -9 -3 0 -12 19 -19 34 10 26 47 -3 17 -6 38 -6 48 1 20 -16 23 -23 5z"/>
<path d="M3977 2733 c-4 -3 -7 -11 -7 -17 0 -6 5 -5 12 2 6 6 9 14 7 17 -3 3
-9 2 -12 -2z"/>
<path d="M3880 2719 c0 -5 5 -7 10 -4 6 3 10 8 10 11 0 2 -4 4 -10 4 -5 0 -10
-5 -10 -11z"/>
<path d="M1483 2700 c4 -14 7 -35 7 -47 0 -13 4 -23 9 -23 9 0 -5 80 -16 90
-3 3 -3 -6 0 -20z"/>
<path d="M3706 2683 c-6 -14 -5 -15 5 -6 7 7 10 15 7 18 -3 3 -9 -2 -12 -12z"/>
<path d="M3993 2660 c4 -32 2 -39 -7 -31 -9 8 -13 7 -13 -4 0 -8 5 -15 10 -15
5 0 6 -7 3 -16 -4 -9 -2 -13 5 -8 8 4 9 -1 4 -17 -4 -15 -3 -19 2 -12 14 20
16 143 2 143 -8 0 -10 -13 -6 -40z"/>
<path d="M1371 2663 c5 -15 8 -32 5 -39 -3 -8 0 -11 10 -7 7 3 14 0 14 -6 0
-6 5 -11 10 -11 11 0 13 40 3 66 -6 16 -7 16 -14 -2 -6 -15 -8 -16 -8 -3 -1 9
-8 19 -16 22 -11 5 -12 1 -4 -20z"/>
<path d="M1461 2664 c0 -11 3 -14 6 -6 3 7 2 16 -1 19 -3 4 -6 -2 -5 -13z"/>
<path d="M3790 2640 c0 -5 5 -10 10 -10 6 0 10 5 10 10 0 6 -4 10 -10 10 -5 0
-10 -4 -10 -10z"/>
<path d="M2941 2624 c0 -11 3 -14 6 -6 3 7 2 16 -1 19 -3 4 -6 -2 -5 -13z"/>
<path d="M3640 2630 c0 -5 5 -10 11 -10 5 0 7 5 4 10 -3 6 -8 10 -11 10 -2 0
-4 -4 -4 -10z"/>
<path d="M4143 2633 c-15 -5 -17 -23 -4 -23 5 0 11 7 15 15 3 8 4 15 3 14 -1
0 -8 -3 -14 -6z"/>
<path d="M1465 2620 c3 -5 8 -10 11 -10 2 0 4 5 4 10 0 6 -5 10 -11 10 -5 0
-7 -4 -4 -10z"/>
<path d="M1350 2589 c0 -5 5 -7 10 -4 6 3 10 8 10 11 0 2 -4 4 -10 4 -5 0 -10
-5 -10 -11z"/>
<path d="M4026 2575 c-9 -26 -7 -32 5 -12 6 10 9 21 6 23 -2 3 -7 -2 -11 -11z"/>
<path d="M3900 2569 c0 -5 5 -7 10 -4 6 3 10 8 10 11 0 2 -4 4 -10 4 -5 0 -10
-5 -10 -11z"/>
<path d="M3870 2549 c0 -5 5 -7 10 -4 6 3 10 8 10 11 0 2 -4 4 -10 4 -5 0 -10
-5 -10 -11z"/>
<path d="M4121 2545 c0 -12 -5 -26 -11 -33 -5 -7 -3 -6 6 2 9 7 14 22 11 32
-4 17 -5 17 -6 -1z"/>
<path d="M4056 2525 c4 -11 2 -13 -9 -9 -8 3 -18 0 -23 -7 -4 -7 -3 -10 4 -5
12 7 46 -23 37 -32 -3 -4 -10 0 -15 8 -8 13 -10 12 -10 -3 0 -10 -7 -32 -15
-50 -12 -24 -12 -28 -2 -14 8 9 19 17 25 17 6 0 9 7 6 15 -4 8 -2 15 4 15 6 0
12 -4 14 -10 2 -5 8 1 14 15 9 19 9 22 -3 18 -11 -5 -14 1 -10 26 4 22 1 31
-9 31 -8 0 -11 -6 -8 -15z"/>
<path d="M4150 2520 c0 -5 5 -10 10 -10 6 0 10 5 10 10 0 6 -4 10 -10 10 -5 0
-10 -4 -10 -10z"/>
<path d="M3978 2500 c-22 -21 -23 -30 -1 -30 9 0 13 3 10 7 -4 3 -2 12 5 20
16 20 6 23 -14 3z"/>
<path d="M3655 2490 c-3 -5 -1 -10 4 -10 6 0 11 5 11 10 0 6 -2 10 -4 10 -3 0
-8 -4 -11 -10z"/>
<path d="M3853 2483 c-4 -10 -1 -19 6 -21 9 -3 9 -7 0 -18 -14 -17 2 -19 19
-2 9 9 7 14 -6 24 -15 12 -15 15 -2 24 11 7 11 10 2 10 -7 0 -16 -8 -19 -17z"/>
<path d="M4004 2465 c-12 -8 -24 -12 -26 -9 -3 3 -8 -7 -12 -21 -4 -14 -11
-25 -16 -25 -6 0 -10 -7 -10 -15 0 -8 -4 -15 -10 -15 -5 0 -10 -7 -10 -15 0
-38 59 -1 60 37 0 9 11 29 25 44 35 37 34 44 -1 19z m-34 -74 c0 -5 -7 -14
-15 -21 -16 -14 -18 -10 -9 14 6 17 24 22 24 7z"/>
<path d="M3892 2433 c-32 -31 -32 -33 -20 -72 7 -23 16 -41 21 -41 9 0 5 53
-5 60 -4 3 4 23 19 43 33 47 27 51 -15 10z"/>
<path d="M3941 2444 c0 -11 3 -14 6 -6 3 7 2 16 -1 19 -3 4 -6 -2 -5 -13z"/>
<path d="M4064 2398 c-4 -6 -3 -8 4 -4 5 3 13 0 15 -6 3 -8 6 -6 6 5 1 19 -14
23 -25 5z"/>
<path d="M2920 2370 c0 -5 5 -10 11 -10 5 0 7 5 4 10 -3 6 -8 10 -11 10 -2 0
-4 -4 -4 -10z"/>
<path d="M3984 2355 c-10 -8 -14 -15 -8 -15 6 0 17 7 24 15 16 19 9 19 -16 0z"/>
<path d="M4050 2360 c0 -5 5 -10 10 -10 6 0 10 5 10 10 0 6 -4 10 -10 10 -5 0
-10 -4 -10 -10z"/>
<path d="M3780 2346 c0 -8 4 -17 8 -20 4 -2 8 4 8 15 0 10 -4 19 -8 19 -4 0
-8 -6 -8 -14z"/>
<path d="M3986 2313 c-6 -14 -5 -15 5 -6 7 7 10 15 7 18 -3 3 -9 -2 -12 -12z"/>
<path d="M3945 2309 c-4 -6 -5 -12 -2 -15 2 -3 7 2 10 11 7 17 1 20 -8 4z"/>
<path d="M3784 2302 c-16 -11 -24 -41 -12 -48 7 -4 6 -9 -3 -15 -11 -7 -10 -9
3 -9 14 0 17 -7 14 -30 -2 -16 1 -30 5 -30 5 0 9 11 9 24 0 13 3 38 7 56 5 28
4 32 -10 27 -10 -4 -17 -2 -17 2 0 5 6 11 13 14 6 2 10 7 7 10 -3 3 -10 3 -16
-1z"/>
<path d="M3860 2281 c-15 -29 -13 -30 20 -18 17 6 30 17 30 24 0 20 -38 15
-50 -6z"/>
<path d="M3945 2240 c-3 -5 -2 -10 4 -10 5 0 13 5 16 10 3 6 2 10 -4 10 -5 0
-13 -4 -16 -10z"/>
<path d="M340 2200 c0 -16 2 -30 4 -30 2 0 6 14 8 30 3 17 1 30 -4 30 -4 0 -8
-13 -8 -30z"/>
<path d="M331 2144 c0 -11 3 -14 6 -6 3 7 2 16 -1 19 -3 4 -6 -2 -5 -13z"/>
<path d="M2870 2080 c-13 -8 -12 -10 3 -10 9 0 17 5 17 10 0 12 -1 12 -20 0z"/>
<path d="M176 1943 c-4 -9 -3 -20 2 -25 4 -4 9 4 10 17 2 29 -3 32 -12 8z"/>
<path d="M121 1754 c0 -11 3 -14 6 -6 3 7 2 16 -1 19 -3 4 -6 -2 -5 -13z"/>
<path d="M111 1634 c0 -11 3 -14 6 -6 3 7 2 16 -1 19 -3 4 -6 -2 -5 -13z"/>
<path d="M1671 1646 c10 -9 79 -14 79 -5 0 5 -19 9 -42 9 -23 0 -39 -2 -37 -4z"/>
<path d="M2998 1533 c6 -2 12 -11 12 -19 0 -8 7 -14 17 -14 14 0 14 2 -2 20
-10 11 -23 20 -29 19 -6 0 -6 -3 2 -6z"/>
<path d="M1702 1305 c0 -16 2 -22 5 -12 2 9 2 23 0 30 -3 6 -5 -1 -5 -18z"/>
<path d="M3042 1250 c0 -14 2 -19 5 -12 2 6 2 18 0 25 -3 6 -5 1 -5 -13z"/>
<path d="M1703 1185 c0 -38 2 -53 4 -32 2 20 2 52 0 70 -2 17 -4 1 -4 -38z"/>
<path d="M2963 595 c-18 -19 -16 -45 2 -45 8 0 15 6 15 14 0 8 3 21 6 30 8 20
-7 20 -23 1z"/>
<path d="M2058 592 c-16 -2 -28 -8 -28 -13 0 -5 -12 -9 -27 -9 -22 0 -25 2
-13 10 11 7 -5 10 -52 10 -38 0 -68 -3 -68 -7 0 -5 3 -18 6 -31 6 -22 8 -22
138 -18 155 5 145 4 126 16 -13 8 -12 11 4 23 19 14 17 15 -20 18 -21 2 -51 3
-66 1z m-128 -26 c0 -3 -4 -8 -10 -11 -5 -3 -10 -1 -10 4 0 6 5 11 10 11 6 0
10 -2 10 -4z"/>
<path d="M2456 515 c4 -10 0 -15 -14 -15 -11 0 -22 4 -24 10 -1 5 -13 7 -25 4
-13 -4 -20 -10 -17 -15 3 -5 -1 -7 -8 -4 -22 7 -83 -11 -80 -24 1 -7 -2 -10
-8 -6 -13 8 -37 -10 -52 -39 -10 -18 -9 -19 4 -9 12 11 14 8 10 -20 -4 -27 -6
-29 -13 -12 -12 31 -10 2 2 -34 6 -17 16 -31 21 -31 6 0 7 5 2 13 -5 7 -1 5 8
-6 10 -10 21 -16 25 -14 4 3 22 -1 38 -8 29 -13 29 -13 -25 -12 -30 1 -94 0
-142 -2 -73 -3 -87 -6 -91 -21 -6 -23 83 -74 113 -65 11 4 20 2 20 -4 0 -6 -5
-11 -12 -11 -6 0 -3 -7 8 -15 10 -8 43 -15 74 -16 52 -1 53 -2 17 -9 -49 -9
-52 -14 -19 -30 15 -8 38 -23 50 -35 l24 -20 -13 27 c-6 15 -19 29 -28 31 -11
3 -9 5 6 6 12 0 25 -3 28 -9 3 -5 26 -8 50 -5 37 5 46 2 59 -17 9 -12 16 -17
16 -11 0 7 22 15 50 19 28 4 50 10 50 15 0 5 8 9 18 9 14 0 14 -2 3 -9 -10 -7
-7 -9 12 -8 l27 2 -23 18 c-12 10 -64 48 -116 84 -79 56 -91 68 -74 74 16 6
19 14 15 40 -3 22 -1 30 7 25 6 -4 11 -18 11 -32 0 -33 33 -35 107 -8 79 29
105 93 58 140 -25 25 -25 25 -3 19 23 -7 23 -7 3 9 -22 17 -50 22 -40 6 3 -6
-1 -7 -10 -4 -9 4 -13 9 -10 12 3 3 -14 12 -37 19 -55 16 -59 16 -52 -2z m-19
-121 c-3 -3 -12 -4 -19 -1 -8 3 -5 6 6 6 11 1 17 -2 13 -5z m-244 -141 c-7 -2
-19 -2 -25 0 -7 3 -2 5 12 5 14 0 19 -2 13 -5z m-53 -13 c-8 -5 -19 -10 -25
-10 -5 0 -3 5 5 10 8 5 20 10 25 10 6 0 3 -5 -5 -10z m220 -100 c0 -5 -5 -10
-11 -10 -5 0 -7 5 -4 10 3 6 8 10 11 10 2 0 4 -4 4 -10z"/>
<path d="M1881 60 l-52 -60 76 0 77 0 -7 53 c-4 28 -9 55 -12 60 -10 18 -34 3
-82 -53z"/>
<path d="M2383 103 c-44 -6 -42 -18 2 -18 21 0 35 5 35 13 0 6 -1 11 -2 10 -2
0 -18 -3 -35 -5z"/>
<path d="M2579 88 c-11 -7 -9 -8 5 -4 17 6 46 -8 46 -23 0 -3 -35 -7 -77 -7
-61 -1 -79 -5 -90 -20 -7 -10 -13 -21 -13 -24 0 -4 29 -7 64 -8 47 0 66 3 70
14 3 8 0 14 -6 14 -6 0 -9 3 -6 6 4 3 16 0 28 -6 18 -10 20 -14 9 -21 -9 -6 4
-9 38 -9 47 0 51 2 46 21 -4 16 -11 19 -29 15 -12 -3 -26 -2 -29 4 -3 5 -1 10
5 10 8 0 7 6 -1 22 -10 18 -9 20 7 14 10 -4 15 -4 11 1 -12 11 -63 12 -78 1z"/>
<path d="M660 66 c0 -9 5 -16 10 -16 6 0 10 4 10 9 0 6 -4 13 -10 16 -5 3 -10
-1 -10 -9z"/>
<path d="M2670 72 c0 -12 19 -26 26 -19 2 2 -2 10 -11 17 -9 8 -15 8 -15 2z"/>
<path d="M726 51 c-23 -11 -34 -21 -27 -25 6 -4 9 -12 6 -17 -4 -5 -1 -9 5 -9
7 0 14 9 17 20 3 11 12 20 19 20 8 0 14 4 14 9 0 5 8 12 18 14 12 3 12 5 2 6
-8 0 -32 -8 -54 -18z"/>
<path d="M3250 60 c0 -5 5 -10 11 -10 5 0 7 5 4 10 -3 6 -8 10 -11 10 -2 0 -4
-4 -4 -10z"/>
<path d="M2140 36 c0 -21 21 -32 65 -34 l40 -3 -40 26 c-45 28 -65 32 -65 11z"/>
<path d="M2714 41 c4 -6 16 -16 28 -22 15 -8 18 -8 14 0 -4 6 -16 16 -28 22
-15 8 -18 8 -14 0z"/>
<path d="M3120 41 c0 -5 5 -13 10 -16 6 -3 10 -2 10 4 0 5 -4 13 -10 16 -5 3
-10 2 -10 -4z"/>
<path d="M3147 21 c-4 -17 -3 -21 5 -13 5 5 8 16 6 23 -3 8 -7 3 -11 -10z"/>
<path d="M2710 10 c0 -5 7 -10 16 -10 8 0 12 5 9 10 -3 6 -10 10 -16 10 -5 0
-9 -4 -9 -10z"/>
<path d="M3295 10 c-3 -5 -1 -10 4 -10 6 0 11 5 11 10 0 6 -2 10 -4 10 -3 0
-8 -4 -11 -10z"/>
</g>
</svg>
